<svg width="44" height="53" viewBox="0 0 44 53" fill="none" xmlns="http://www.w3.org/2000/svg">
<path d="M26.2954 52.0001C25.8187 52.0001 25.4287 51.6101 25.4287 51.1334V47.0945C25.4287 46.1758 26.2001 45.4218 27.1448 45.4218H30.2129C30.8283 45.4218 31.409 45.2138 31.8423 44.8411C32.189 44.5377 32.4924 44.2344 32.7437 43.9484C33.0644 43.5844 33.6104 43.5497 33.9658 43.8704C34.3298 44.1824 34.3644 44.7371 34.0438 45.0924C33.7404 45.4391 33.3764 45.8031 32.9777 46.1498C32.2237 46.7998 31.2443 47.1639 30.2043 47.1639H27.1361L27.1535 51.142C27.1535 51.6187 26.7634 52.0087 26.2867 52.0087L26.2954 52.0001Z" fill="#234DCA"/>
<path d="M43.0234 30.8006L39.3312 25.7131C38.9932 25.2537 38.8459 24.6817 38.9066 24.1097C38.9846 23.4683 39.0279 22.7836 39.0279 22.0729L39.0106 17.7567C39.0106 16.9854 38.7765 16.2313 38.3172 15.512C38.0572 15.1046 37.5285 14.9919 37.1211 15.2433C36.7225 15.5033 36.6011 16.0406 36.8611 16.4393C37.1385 16.8727 37.2771 17.3234 37.2771 17.7567C37.2771 20.8335 29.9795 24.257 19.5097 24.257C19.085 24.257 18.6516 24.257 18.227 24.2397C17.7416 24.2397 17.3516 24.6124 17.3429 25.089C17.3343 25.5657 17.7156 25.9644 18.1923 25.9731C18.6343 25.9818 19.0677 25.9904 19.5097 25.9904C27.5267 25.9904 34.261 24.049 37.2945 21.1889V22.0729C37.2945 22.7056 37.2598 23.321 37.1905 23.9017C37.0778 24.9157 37.3465 25.9211 37.9272 26.7271L41.5413 31.702H38.1612C37.7105 31.702 37.3378 32.0487 37.2945 32.4907C37.2945 32.534 36.8698 37.1536 34.6597 41.2011C34.4257 41.6171 34.5817 42.1458 35.0064 42.3798C35.1364 42.4492 35.2837 42.4838 35.4224 42.4838C35.7257 42.4838 36.0291 42.3192 36.1851 42.0331C38.0312 38.6617 38.7072 35.0128 38.9326 33.4354H41.628C42.2867 33.4354 42.8761 33.0801 43.1621 32.4994C43.4394 31.9447 43.3874 31.286 43.0234 30.792V30.8006Z" fill="#234DCA"/>
<path d="M14.8293 24.0316C7.367 23.2516 1.74208 20.5648 1.74208 17.7653C1.74208 16.942 2.22743 16.1186 3.18081 15.3212C3.54483 15.0179 3.59683 14.4632 3.28481 14.0992C2.98147 13.7351 2.43544 13.6831 2.06276 13.9952C0.710699 15.1219 0 16.4306 0 17.774V22.0902C0 25.0717 0.762701 28.0445 2.20143 30.6879C2.20143 30.7052 2.21877 30.7139 2.21877 30.7312L7.08098 39.8923C8.39838 42.3798 8.33771 45.3092 6.92498 47.7447L5.20023 50.7088C4.95756 51.1248 5.09623 51.6535 5.51225 51.8962C5.65092 51.9742 5.79826 52.0175 5.9456 52.0175C6.24028 52.0175 6.53496 51.8615 6.69097 51.5842L8.41571 48.62C10.1405 45.6646 10.2098 42.1024 8.60639 39.0776L3.77017 29.9685C3.77017 29.9685 3.75284 29.9252 3.7355 29.9079C2.40077 27.4724 1.71608 24.8463 1.71608 22.0989V21.2495C4.07352 23.4683 8.68439 25.1497 14.63 25.765H14.7167C15.1587 25.765 15.5314 25.4357 15.5747 24.985C15.6267 24.5083 15.28 24.0836 14.8033 24.0316H14.8293Z" fill="#234DCA"/>
<path d="M19.9422 16.4652C19.7775 16.4652 19.6128 16.4219 19.4742 16.3266C19.2921 16.2052 15.002 13.3798 15.002 8.23154C15.002 3.0833 19.2921 0.257845 19.4742 0.136506C19.7602 -0.045502 20.1242 -0.045502 20.4102 0.136506C20.5922 0.257845 24.8824 3.0833 24.8824 8.23154C24.8824 13.3798 20.5922 16.2052 20.4102 16.3266C20.2629 16.4219 20.1068 16.4652 19.9422 16.4652ZM19.9422 1.94792C18.9541 2.76262 16.7267 4.96406 16.7267 8.23154C16.7267 11.499 18.9455 13.6918 19.9422 14.5152C20.9389 13.7004 23.1577 11.499 23.1577 8.23154C23.1577 4.96406 20.9389 2.76262 19.9508 1.94792H19.9422Z" fill="#FFAA2A"/>
<path d="M17.9404 16.6822C16.1376 16.6822 13.5722 16.2228 11.5267 14.0561C8.09458 10.4072 9.2473 5.20699 9.29063 4.99032C9.35997 4.6783 9.60265 4.42696 9.91466 4.34896C10.062 4.31429 13.4595 3.45625 16.6056 5.22433C17.0216 5.45834 17.169 5.98703 16.935 6.40305C16.701 6.81907 16.1723 6.96641 15.7563 6.7324C13.8928 5.68368 11.8387 5.79635 10.8854 5.92636C10.7207 7.21775 10.5734 10.5199 12.7835 12.8687C15.5309 15.7895 19.5524 14.8101 19.7171 14.7668C20.1851 14.6454 20.6531 14.9314 20.7745 15.3908C20.8958 15.8501 20.6185 16.3268 20.1505 16.4482C20.0638 16.4742 19.1797 16.6908 17.9317 16.6908L17.9404 16.6822Z" fill="#FFAA2A"/>
<path d="M13.0088 20.7986C8.10323 20.7986 5.43378 16.2224 5.32111 16.0317C5.1651 15.7631 5.1651 15.4337 5.32111 15.1737C5.39911 15.0437 7.22786 11.8975 10.6167 10.7968C11.076 10.6495 11.5614 10.9008 11.7087 11.3515C11.8561 11.8109 11.6047 12.2962 11.154 12.4436C9.07394 13.1196 7.67855 14.8097 7.11519 15.607C7.83455 16.6211 9.91465 19.0739 13.0088 19.0739C16.8916 19.0739 19.1711 15.217 19.1884 15.1737C19.4224 14.7577 19.9598 14.619 20.3671 14.853C20.7831 15.087 20.9218 15.6157 20.6878 16.0317C20.5751 16.2224 17.9057 20.7986 13.0001 20.7986H13.0088Z" fill="#FFAA2A"/>
<path d="M26.8762 20.7986C21.9707 20.7986 19.3012 16.2224 19.1885 16.0317C18.9545 15.6157 19.0932 15.087 19.5092 14.853C19.9252 14.619 20.4539 14.7577 20.6879 15.1737C20.7053 15.2084 22.9847 19.0739 26.8676 19.0739C29.9617 19.0739 32.0418 16.6211 32.7612 15.607C32.1891 14.8097 30.7851 13.1196 28.7223 12.4436C28.263 12.2962 28.0203 11.8022 28.1676 11.3515C28.315 10.9008 28.809 10.6495 29.2597 10.7968C32.6485 11.8975 34.4772 15.0437 34.5552 15.1737C34.7112 15.4424 34.7112 15.7717 34.5552 16.0317C34.4426 16.2224 31.7731 20.7986 26.8676 20.7986H26.8762Z" fill="#FFAA2A"/>
<path d="M21.9449 16.682C20.6969 16.682 19.8129 16.4653 19.7262 16.4393C19.2668 16.318 18.9808 15.85 19.1022 15.3819C19.2235 14.9226 19.6915 14.6366 20.1595 14.7579C20.3242 14.8012 24.3457 15.7806 27.0932 12.8598C29.3033 10.5111 29.1559 7.2089 28.9913 5.91751C28.0379 5.78751 25.9925 5.67484 24.1204 6.72355C23.6957 6.95756 23.1757 6.81022 22.9417 6.3942C22.7076 5.97818 22.855 5.44949 23.271 5.21548C26.4171 3.45607 29.8233 4.30544 29.962 4.34011C30.274 4.41811 30.5167 4.66946 30.586 4.98147C30.638 5.19815 31.7821 10.3984 28.3499 14.0472C26.3045 16.214 23.739 16.6733 21.9363 16.6733L21.9449 16.682Z" fill="#FFAA2A"/>
</svg>
