<svg width="38" height="38" viewBox="0 0 38 38" fill="none" xmlns="http://www.w3.org/2000/svg">
<g clip-path="url(#clip0_13_728)">
<path d="M20.6465 38H6.07141C5.83503 38 5.61029 37.8976 5.45525 37.7192C5.30021 37.5409 5.23007 37.3041 5.26295 37.07L6.00016 31.8233C6.37156 29.1798 5.91207 26.5467 4.67142 24.2084C3.17769 21.3933 2.35075 18.027 2.4027 14.9727C2.47202 10.8924 4.11738 7.09214 7.03559 4.2719C9.95299 1.45247 13.8082 -0.0630075 17.8886 0.0020083C21.906 0.0668756 25.6726 1.68047 28.4945 4.54561C31.291 7.38493 32.8438 11.134 32.875 15.1149L35.5639 23.983C35.6389 24.2304 35.5924 24.4987 35.4383 24.7063C35.2843 24.9139 35.0411 25.0363 34.7826 25.0363H31.2831V29.5547C31.2831 32.0125 29.2836 34.0121 26.8257 34.0121H21.463V37.1836C21.4629 37.6345 21.0974 38 20.6465 38ZM7.01051 36.3672H19.8301V33.1957C19.8301 32.7449 20.1956 32.3793 20.6465 32.3793H26.8256C28.3831 32.3793 29.6502 31.1122 29.6502 29.5547V24.2199C29.6502 23.769 30.0158 23.4035 30.4666 23.4035H33.6819L31.2778 15.4744C31.2545 15.3976 31.2426 15.3178 31.2426 15.2375C31.2426 11.6425 29.8535 8.25233 27.3312 5.69141C24.8116 3.13323 21.4489 1.69249 17.8622 1.6346C14.217 1.57604 10.7744 2.92928 8.17018 5.44604C5.56554 7.96317 4.09712 11.3563 4.03514 15.0005C3.98853 17.7462 4.76553 20.9023 6.11372 23.4431C7.51683 26.0874 8.03673 29.0638 7.61702 32.0504L7.01051 36.3672Z" fill="#234DCA"/>
<path d="M29.6221 15.5724C29.6221 13.793 28.7066 12.145 27.2381 11.1928C27.5562 9.92463 27.1967 8.5564 26.2461 7.60566C25.559 6.91869 24.6354 6.52926 23.6787 6.50277C23.1052 5.11591 21.735 4.16821 20.1893 4.16821C19.2421 4.16821 18.355 4.51474 17.6733 5.12675C16.9917 4.51474 16.1046 4.16821 15.1575 4.16821C13.6117 4.16821 12.2415 5.11591 11.6681 6.50277C10.7115 6.52934 9.78757 6.91876 9.10068 7.60566C8.14993 8.5564 7.79042 9.92463 8.10852 11.1928C6.6401 12.145 5.72461 13.793 5.72461 15.5724C5.72461 17.3517 6.6401 18.9997 8.10852 19.952C7.79042 21.2201 8.15001 22.5884 9.10068 23.5391C9.78765 24.2261 10.7114 24.6154 11.6681 24.642C12.2415 26.0289 13.6117 26.9766 15.1575 26.9766C16.1047 26.9766 16.9918 26.63 17.6733 26.018C18.355 26.63 19.2422 26.9766 20.1893 26.9766C21.735 26.9766 23.1052 26.0289 23.6787 24.642C24.6353 24.6155 25.5591 24.2261 26.2461 23.5391C27.1968 22.5883 27.5564 21.2202 27.2381 19.952C28.7066 18.9997 29.6221 17.3517 29.6221 15.5724ZM17.664 18.6523L14.3809 15.3691C14.0195 15.0077 13.8205 14.5273 13.8205 14.0162C13.8205 13.5051 14.0195 13.0247 14.3809 12.6632C14.7539 12.2903 15.2439 12.1038 15.7338 12.1038C16.2238 12.1038 16.7138 12.2903 17.0868 12.6632C17.4057 12.9821 17.9225 12.9821 18.2414 12.6632C18.9874 11.9173 20.2012 11.9173 20.9472 12.6632C21.3086 13.0246 21.5076 13.505 21.5076 14.0161C21.5076 14.5272 21.3086 15.0077 20.9472 15.369L17.664 18.6523ZM15.1574 25.3437C14.1405 25.3437 13.2575 24.6215 13.058 23.6264C12.9715 23.1946 12.5582 22.9092 12.1235 22.9816C11.4412 23.0951 10.7428 22.8719 10.2552 22.3845C9.60923 21.7384 9.44416 20.7526 9.84472 19.9316C9.94113 19.7338 9.95375 19.5056 9.87961 19.2986C9.80554 19.0915 9.65101 18.9231 9.45107 18.8314C8.17918 18.2486 7.35743 16.9694 7.35743 15.5723C7.35743 14.1752 8.17918 12.8959 9.45107 12.3132C9.65101 12.2216 9.80554 12.0532 9.87961 11.8461C9.95375 11.639 9.94113 11.4108 9.84472 11.2131C9.44424 10.392 9.60923 9.40621 10.2552 8.76021C10.7426 8.27267 11.4411 8.04964 12.1235 8.16304C12.558 8.23578 12.9715 7.95004 13.058 7.51823C13.2575 6.52318 14.1405 5.80095 15.1574 5.80095C15.8321 5.80095 16.4526 6.11201 16.8569 6.64141V10.6531C15.6229 10.2433 14.2066 10.5283 13.2263 11.5086C12.5565 12.1784 12.1877 13.0688 12.1877 14.0161C12.1877 14.9634 12.5565 15.8538 13.2263 16.5236L16.8569 20.1541V24.5031C16.4526 25.0326 15.8321 25.3437 15.1574 25.3437ZM25.8956 18.8315C25.6957 18.9232 25.5411 19.0916 25.4671 19.2986C25.3929 19.5057 25.4055 19.7339 25.5019 19.9316C25.9024 20.7527 25.7375 21.7385 25.0915 22.3845C24.6041 22.872 23.9057 23.0951 23.2232 22.9817C22.7889 22.9092 22.3753 23.1947 22.2887 23.6264C22.0891 24.6215 21.2062 25.3437 20.1894 25.3437C19.5146 25.3437 18.8942 25.0326 18.4898 24.5032V20.1357L22.1018 16.5237C22.7716 15.854 23.1404 14.9635 23.1404 14.0162C23.1404 13.0691 22.7716 12.1785 22.1018 11.5088C21.1264 10.5334 19.7195 10.2463 18.4898 10.6472V6.64156C18.8942 6.11215 19.5146 5.8011 20.1894 5.8011C21.2062 5.8011 22.0891 6.52333 22.2887 7.51838C22.3753 7.95019 22.7889 8.23556 23.2232 8.16312C23.9056 8.04964 24.604 8.27281 25.0915 8.76021C25.7375 9.40629 25.9025 10.392 25.5019 11.2131C25.4055 11.4109 25.3929 11.6391 25.4671 11.8462C25.5411 12.0532 25.6957 12.2217 25.8956 12.3133C27.1675 12.8961 27.9893 14.1753 27.9893 15.5724C27.9893 16.9695 27.1674 18.2488 25.8956 18.8315Z" fill="#FFAA2A"/>
</g>
<defs>
<clipPath id="clip0_13_728">
<rect width="38" height="38" fill="white"/>
</clipPath>
</defs>
</svg>
