<svg width="46" height="46" viewBox="0 0 46 46" fill="none" xmlns="http://www.w3.org/2000/svg">
<path d="M25.4342 3.94288L21.7808 0.289477C21.5955 0.104129 21.3441 0 21.0819 0H14.6886H9.20844H4.64169C4.09589 0 3.65341 0.44248 3.65341 0.988281C3.65341 1.53408 4.09589 1.97656 4.64169 1.97656H8.22016V9.31805C6.19895 9.35821 4.56676 11.0138 4.56676 13.0445V14.8861C1.97378 15.3538 0 17.6256 0 20.3513V40.445C0 43.508 2.492 46 5.55504 46H18.3419C21.4049 46 23.8969 43.508 23.8969 40.445V20.3513C23.8969 17.6257 21.9231 15.3538 19.3302 14.8861V13.0445C19.3302 11.0138 17.698 9.35821 15.6767 9.31805V1.97656H20.6725L24.0364 5.34049C24.2294 5.53348 24.4823 5.62997 24.7352 5.62997C24.9881 5.62997 25.2411 5.53348 25.434 5.34049C25.8201 4.95452 25.8201 4.32885 25.4342 3.94288ZM21.9203 20.3513V40.445C21.9203 42.4181 20.315 44.0234 18.3419 44.0234H5.55504C3.58189 44.0234 1.97656 42.4181 1.97656 40.445V20.3513C1.97656 18.3782 3.58189 16.7728 5.55504 16.7728H18.3419C20.3151 16.7728 21.9203 18.3782 21.9203 20.3513ZM17.3536 13.0445V14.7963H6.54332V13.0445C6.54332 12.0786 7.32918 11.2927 8.295 11.2927H9.20835H14.6885H15.6018C16.5678 11.2927 17.3536 12.0785 17.3536 13.0445ZM13.7003 9.31617H10.1967V1.97656H13.7003V9.31617Z" fill="#234DCA"/>
<path d="M11.9494 36.8664C10.2603 36.8664 8.74947 35.9919 7.90817 34.5271C7.06679 33.0624 7.07262 31.3167 7.9238 29.8577L11.0958 24.4201C11.2729 24.1165 11.598 23.9297 11.9495 23.9297C12.3011 23.9297 12.626 24.1164 12.8031 24.4201L15.9752 29.8577C16.8263 31.3168 16.8322 33.0624 15.9908 34.5272C15.1493 35.9919 13.6386 36.8664 11.9494 36.8664ZM11.9494 26.8793L9.63111 30.8536C9.14092 31.6939 9.13759 32.6992 9.62212 33.5427C10.1066 34.3862 10.9767 34.8899 11.9494 34.8899C12.9222 34.8899 13.7922 34.3863 14.2767 33.5427C14.7613 32.6991 14.7579 31.6939 14.2678 30.8536L11.9494 26.8793Z" fill="#FFAA2A"/>
<path d="M40.5781 46.0004H33.0048C30.0153 46.0004 27.583 43.5682 27.583 40.5786C27.583 39.7412 27.7809 38.9028 28.1555 38.1539C28.976 36.5128 29.4097 34.6755 29.4097 32.8405V31.6097C29.4097 29.7748 28.9759 27.9375 28.1554 26.2965C27.7809 25.5476 27.583 24.7091 27.583 23.8718C27.583 20.8822 30.0152 18.45 33.0048 18.45H40.5781C43.5677 18.45 45.9999 20.8821 45.9999 23.8718C45.9999 24.7091 45.802 25.5475 45.4275 26.2965C44.6069 27.9377 44.1732 29.7749 44.1732 31.6098V32.8406C44.1732 34.6754 44.607 36.5127 45.4275 38.1539C45.802 38.903 45.9999 39.7414 45.9999 40.5786C45.9999 43.5682 43.5677 46.0004 40.5781 46.0004ZM33.0048 20.4265C31.1051 20.4265 29.5596 21.972 29.5596 23.8718C29.5596 24.4038 29.6854 24.9367 29.9233 25.4125C30.8804 27.3267 31.3863 29.4696 31.3863 31.6097V32.8405C31.3863 34.9807 30.8804 37.1236 29.9233 39.0377C29.6854 39.5136 29.5596 40.0464 29.5596 40.5785C29.5596 42.4782 31.1051 44.0237 33.0048 44.0237H40.5781C42.4778 44.0238 44.0233 42.4783 44.0233 40.5786C44.0233 40.0465 43.8976 39.5137 43.6596 39.0378C42.7025 37.1236 42.1966 34.9807 42.1966 32.8406V31.6098C42.1966 29.4697 42.7025 27.3268 43.6596 25.4126C43.8976 24.9367 44.0233 24.4039 44.0233 23.8718C44.0233 21.9722 42.4778 20.4266 40.5781 20.4266L33.0048 20.4265Z" fill="#234DCA"/>
<path d="M36.791 38.6935C36.2452 38.6935 35.8027 38.251 35.8027 37.7052V26.7451C35.8027 26.1993 36.2452 25.7568 36.791 25.7568C37.3368 25.7568 37.7793 26.1993 37.7793 26.7451V37.7053C37.7793 38.2511 37.3369 38.6935 36.791 38.6935Z" fill="#FFAA2A"/>
</svg>
