<svg width="22" height="22" viewBox="0 0 22 22" fill="none" xmlns="http://www.w3.org/2000/svg">
<g clip-path="url(#clip0_13_3907)">
<path d="M19.0592 4.73426C19.1044 4.75101 19.1521 4.75918 19.1993 4.75918C19.2908 4.75918 19.3815 4.72867 19.4545 4.67023L21.2622 3.22305C21.3344 3.16547 21.3705 3.07609 21.3589 2.98457C21.3473 2.89305 21.2902 2.8157 21.206 2.77746L20.8158 2.60172C20.7402 2.56777 20.6512 2.60129 20.6169 2.67691C20.5829 2.75254 20.6164 2.84148 20.6921 2.87586L21.0263 3.02625L20.1953 3.69183C20.2688 3.40437 20.1743 3.08512 19.9306 2.88961L20.7625 2.05773C20.8356 1.98469 20.876 1.88715 20.876 1.78359C20.876 1.68004 20.8356 1.58293 20.7625 1.50945L20.4901 1.23703C20.417 1.16398 20.3195 1.12359 20.216 1.12359C20.1124 1.12359 20.0153 1.16398 19.9418 1.23703L19.583 1.59582L19.2221 0.794023C19.1843 0.709804 19.1069 0.652655 19.015 0.641054C18.923 0.629452 18.8341 0.665546 18.7765 0.737734L17.3293 2.54543C17.2408 2.65629 17.2163 2.80754 17.2653 2.94074L17.5274 3.65187L14.0792 7.10012C14.059 7.10957 14.0371 7.11516 14.0151 7.11516C13.9765 7.11516 13.9382 7.10055 13.909 7.0709C13.8501 7.01203 13.8501 6.91707 13.909 6.8582L15.2256 5.54164C13.955 4.53746 12.3505 3.93719 10.6051 3.93719C6.48658 3.93719 3.14791 7.27586 3.14791 11.3944C3.14791 15.513 6.48658 18.8516 10.6051 18.8516C14.7237 18.8516 18.0624 15.513 18.0624 11.3944C18.0624 9.54418 17.3878 7.85121 16.2719 6.54797L17.851 4.96887C19.4249 6.74219 20.2899 9.01738 20.2899 11.3944C20.2899 13.9816 19.2822 16.4136 17.4531 18.2428C15.6239 20.072 13.1919 21.0796 10.6047 21.0796C8.01756 21.0796 5.58553 20.072 3.75635 18.2428C1.92717 16.4136 0.919551 13.9816 0.919551 11.3944C0.919551 8.80769 1.92717 6.37523 3.75635 4.54605C5.58553 2.71687 8.01756 1.70926 10.6047 1.70926C12.8296 1.70926 14.9218 2.44316 16.6547 3.83105C16.7196 3.88305 16.8141 3.8723 16.8661 3.80785C16.9181 3.74297 16.9074 3.64844 16.8429 3.59644C15.0563 2.16516 12.8988 1.40848 10.6047 1.40848C7.93764 1.40848 5.42998 2.44703 3.54365 4.33336C1.65861 6.21969 0.619629 8.72734 0.619629 11.3944C0.619629 14.0615 1.65861 16.5696 3.54451 18.4555C5.43041 20.3414 7.93807 21.3804 10.6056 21.3804C13.2731 21.3804 15.7803 20.3418 17.6666 18.4555C19.5525 16.5696 20.5915 14.0619 20.5915 11.3944C20.5915 8.93746 19.6947 6.58621 18.0645 4.75617L18.3485 4.47215L19.0592 4.73426ZM18.9737 0.973632L19.3562 1.82355L19.0889 2.09082C18.9028 1.84332 18.5913 1.74277 18.3069 1.80637L18.9737 0.973632ZM15.5629 11.3944C15.5629 14.1324 13.3435 16.3517 10.6056 16.3517C7.8676 16.3517 5.64826 14.1324 5.64826 11.3944C5.64826 8.65644 7.8676 6.43711 10.6056 6.43711C11.7653 6.43711 12.8318 6.83586 13.6765 7.50316L11.0189 10.1608C10.9987 10.1702 10.9768 10.1758 10.9549 10.1758C10.9162 10.1758 10.878 10.1612 10.8488 10.1316C10.7899 10.0727 10.7899 9.97773 10.8488 9.91887L11.8555 8.91211C11.48 8.72262 11.0559 8.61519 10.606 8.61519C9.07115 8.61519 7.82721 9.85914 7.82721 11.394C7.82721 12.9288 9.07115 14.1728 10.606 14.1728C12.1408 14.1728 13.3848 12.9288 13.3848 11.394C13.3848 10.8367 13.2198 10.318 12.937 9.8832L14.4968 8.32344C15.1641 9.1682 15.5629 10.2347 15.5629 11.3944ZM11.107 11.2883C10.9979 11.397 10.8208 11.397 10.7121 11.2883C10.6034 11.1791 10.6034 11.0021 10.7121 10.8934L20.1549 1.45016C20.1717 1.4334 20.194 1.4248 20.2164 1.4248C20.2387 1.4248 20.2606 1.4334 20.2778 1.45016L20.5503 1.72258C20.5842 1.75652 20.5842 1.81152 20.5503 1.84547L11.107 11.2883Z" fill="#234DCA"/>
</g>
<defs>
<clipPath id="clip0_13_3907">
<rect width="22" height="22" fill="white"/>
</clipPath>
</defs>
</svg>
