<svg width="22" height="22" viewBox="0 0 22 22" fill="none" xmlns="http://www.w3.org/2000/svg">
<path d="M18.7021 4.55489L18.6037 4.57258L18.7021 4.55489C18.5064 3.46592 17.4458 2.73926 16.3405 2.93057L4.62169 4.95853C3.51582 5.14988 2.77181 6.1895 2.96756 7.279L3.05417 7.76114C2.37286 8.08484 1.9 8.77074 1.9 9.56501V17.0972C1.9 18.2034 2.81632 19.1 3.93885 19.1H15.572C16.6945 19.1 17.6108 18.2034 17.6108 17.0972V14.6193L18.4143 14.4802C18.9499 14.3875 19.4177 14.0954 19.7302 13.6573C20.0428 13.2192 20.1632 12.6869 20.0685 12.1597L18.7021 4.55489ZM4.20592 7.06339L4.20592 7.06338C4.16983 6.86259 4.21544 6.66037 4.33492 6.49286C4.45443 6.32535 4.63322 6.21334 4.83946 6.17764C4.83946 6.17764 4.83946 6.17764 4.83947 6.17764L16.5583 4.14971L16.5413 4.05118L16.5583 4.14971C16.6042 4.14177 16.6498 4.13796 16.6948 4.13796C17.068 4.13796 17.3975 4.40121 17.4638 4.77043L18.8301 12.3753C18.8662 12.5761 18.8206 12.7784 18.7011 12.9458C18.5816 13.1133 18.4028 13.2253 18.1966 13.261L17.6108 13.3624V12.8897V10.5354V9.56497C17.6108 8.45879 16.6945 7.56219 15.572 7.56219H4.29555L4.20592 7.06339ZM15.572 17.8621H3.93885C3.50636 17.8621 3.15756 17.5171 3.15756 17.0972V13.5086H16.3533V17.0972C16.3533 17.5171 16.0045 17.8621 15.572 17.8621ZM3.93885 8.8001H15.572C16.0045 8.8001 16.3533 9.14509 16.3533 9.56501V9.91649H3.15756V9.56501C3.15756 9.14509 3.50636 8.8001 3.93885 8.8001ZM16.3533 11.1544V12.2708H3.15756V11.1544H16.3533Z" fill="#234DCA" stroke="#234DCA" stroke-width="0.2"/>
<path d="M7.38807 15.9H4.61193C4.23859 15.9 3.9 16.1507 3.9 16.5C3.9 16.8493 4.23859 17.1 4.61193 17.1H7.38807C7.76141 17.1 8.1 16.8493 8.1 16.5C8.1 16.1507 7.76141 15.9 7.38807 15.9Z" fill="#234DCA" stroke="#234DCA" stroke-width="0.2"/>
</svg>
