<svg width="22" height="22" viewBox="0 0 22 22" fill="none" xmlns="http://www.w3.org/2000/svg">
<path d="M7.30478 8.29744H14.6954C15.0371 8.29744 15.3142 8.02037 15.3142 7.67869C15.3142 7.337 15.0371 7.05994 14.6954 7.05994H7.30478C6.9631 7.05994 6.68604 7.337 6.68604 7.67869C6.68604 8.02037 6.9631 8.29744 7.30478 8.29744Z" fill="#F98A17"/>
<path d="M13.1179 9.4751H8.88291C8.54122 9.4751 8.26416 9.75216 8.26416 10.0938C8.26416 10.4355 8.54122 10.7126 8.88291 10.7126H13.1179C13.4596 10.7126 13.7367 10.4355 13.7367 10.0938C13.7367 9.75216 13.4596 9.4751 13.1179 9.4751Z" fill="#F98A17"/>
<path d="M19.9281 7.57349L18.2052 6.26105V5.37142C18.2052 4.27211 17.3101 3.37767 16.2115 3.37767H14.4267L12.2095 1.68642C11.498 1.14261 10.5032 1.14261 9.79091 1.68642L7.57372 3.37767H5.75459C4.65528 3.37767 3.76084 4.27211 3.76084 5.37142V6.28236L2.06891 7.57486C1.57872 7.94955 1.28516 8.54217 1.28516 9.15886V18.7295C1.28516 19.8289 2.18028 20.7233 3.27891 20.7233H18.7208C19.8202 20.7233 20.7146 19.8282 20.7146 18.7295V9.15955C20.7153 8.5408 20.421 7.94817 19.9281 7.57349ZM19.077 8.4803L18.2052 9.14442V7.81617L19.077 8.4803ZM10.5417 2.66955C10.8118 2.4633 11.1886 2.4633 11.4588 2.66955L12.3869 3.37767H9.61422L10.5417 2.66955ZM5.75459 4.61449H16.2115C16.6281 4.61449 16.9677 4.95411 16.9677 5.37074V10.0884L11.4588 14.2869C11.1886 14.4939 10.8118 14.4932 10.5417 14.2876L4.99834 10.0622V5.37142C4.99903 4.95411 5.33797 4.61449 5.75459 4.61449ZM3.76084 9.11899L2.92209 8.47961L3.76084 7.83886V9.11899ZM18.7208 19.4851H3.27959C2.86297 19.4851 2.52334 19.1462 2.52334 18.7289V9.73224L9.79091 15.2721C10.147 15.5437 10.5733 15.6791 10.9995 15.6791C11.4265 15.6791 11.8527 15.543 12.2095 15.2714L19.4771 9.73155V18.7289C19.4771 19.1462 19.1382 19.4851 18.7208 19.4851Z" fill="#234DCA"/>
</svg>
