<svg width="22" height="22" viewBox="0 0 22 22" fill="none" xmlns="http://www.w3.org/2000/svg">
<path d="M10.9999 0.756226C6.24581 0.756226 2.37793 4.6241 2.37793 9.37817C2.37793 14.7111 8.32893 19.5917 10.1529 20.9612C10.4066 21.1509 10.7029 21.2458 10.9999 21.2458C11.2969 21.2458 11.5939 21.1509 11.8469 20.9605C13.6708 19.5917 19.6218 14.7111 19.6218 9.37817C19.6218 4.6241 15.7539 0.756226 10.9999 0.756226ZM11.1044 19.9705C11.0411 20.0179 10.9593 20.0179 10.8954 19.9705C9.18762 18.689 3.61543 14.137 3.61543 9.37748C3.61543 5.3061 6.92849 1.99373 10.9999 1.99373C15.0712 1.99373 18.3843 5.3061 18.3843 9.37817C18.3843 14.137 12.8121 18.689 11.1044 19.9705Z" fill="#234DCA"/>
<path d="M10.9998 5.52881C8.95175 5.52881 7.28662 7.19462 7.28662 9.242C7.28662 11.2894 8.95243 12.9559 10.9998 12.9559C13.0472 12.9559 14.713 11.2901 14.713 9.242C14.713 7.19393 13.0479 5.52881 10.9998 5.52881ZM10.9998 11.7184C9.63443 11.7184 8.52343 10.6074 8.52343 9.242C8.52343 7.87662 9.63443 6.76562 10.9998 6.76562C12.3652 6.76562 13.4762 7.87662 13.4762 9.242C13.4762 10.6081 12.3652 11.7184 10.9998 11.7184Z" fill="#F98A17"/>
</svg>
