<svg width="19" height="19" viewBox="0 0 19 19" fill="none" xmlns="http://www.w3.org/2000/svg">
<g clip-path="url(#clip0_13_1920)">
<path d="M7.125 9.5H11.875" stroke="#415674" stroke-linecap="round" stroke-linejoin="round"/>
<path d="M7.125 11.875H11.875" stroke="#415674" stroke-linecap="round" stroke-linejoin="round"/>
<path d="M4.15625 2.96875H14.8438C15.0012 2.96875 15.1522 3.03131 15.2636 3.14266C15.3749 3.25401 15.4375 3.40503 15.4375 3.5625V14.8438C15.4375 15.3162 15.2498 15.7692 14.9158 16.1033C14.5817 16.4373 14.1287 16.625 13.6562 16.625H5.34375C4.87133 16.625 4.41827 16.4373 4.08422 16.1033C3.75017 15.7692 3.5625 15.3162 3.5625 14.8438V3.5625C3.5625 3.40503 3.62506 3.25401 3.73641 3.14266C3.84776 3.03131 3.99878 2.96875 4.15625 2.96875Z" stroke="#415674" stroke-linecap="round" stroke-linejoin="round"/>
<path d="M5.9375 1.78125V4.15625" stroke="#415674" stroke-linecap="round" stroke-linejoin="round"/>
<path d="M9.5 1.78125V4.15625" stroke="#415674" stroke-linecap="round" stroke-linejoin="round"/>
<path d="M13.0625 1.78125V4.15625" stroke="#415674" stroke-linecap="round" stroke-linejoin="round"/>
</g>
<defs>
<clipPath id="clip0_13_1920">
<rect width="19" height="19" fill="white"/>
</clipPath>
</defs>
</svg>
