<svg width="18" height="18" viewBox="0 0 18 18" fill="none" xmlns="http://www.w3.org/2000/svg">
<g clip-path="url(#clip0_2233_8497)">
<path d="M4.48633 14.0178C4.90955 13.1842 5.55533 12.4841 6.3521 11.995C7.14887 11.5059 8.0655 11.2471 9.00039 11.2471C9.93528 11.2471 10.8519 11.5059 11.6487 11.995C12.4455 12.4841 13.0912 13.1842 13.5145 14.0178" stroke="white" stroke-width="1.5" stroke-linecap="round" stroke-linejoin="round"/>
<path d="M9 15.75C12.7279 15.75 15.75 12.7279 15.75 9C15.75 5.27208 12.7279 2.25 9 2.25C5.27208 2.25 2.25 5.27208 2.25 9C2.25 12.7279 5.27208 15.75 9 15.75Z" stroke="white" stroke-width="1.5" stroke-linecap="round" stroke-linejoin="round"/>
<path d="M9 11.25C10.5533 11.25 11.8125 9.9908 11.8125 8.4375C11.8125 6.8842 10.5533 5.625 9 5.625C7.4467 5.625 6.1875 6.8842 6.1875 8.4375C6.1875 9.9908 7.4467 11.25 9 11.25Z" stroke="white" stroke-width="1.5" stroke-linecap="round" stroke-linejoin="round"/>
</g>
<defs>
<clipPath id="clip0_2233_8497">
<rect width="18" height="18" fill="white"/>
</clipPath>
</defs>
</svg>
