<svg width="21" height="22" viewBox="0 0 21 22" fill="none" xmlns="http://www.w3.org/2000/svg">
<g clip-path="url(#clip0_13_546)">
<path d="M8.53125 3.32178H4.59375C4.23131 3.32178 3.9375 3.61922 3.9375 3.98613V17.2732C3.9375 17.6401 4.23131 17.9375 4.59375 17.9375H8.53125C8.89369 17.9375 9.1875 17.6401 9.1875 17.2732V3.98613C9.1875 3.61922 8.89369 3.32178 8.53125 3.32178Z" stroke="#415674" stroke-width="1.3" stroke-linecap="round" stroke-linejoin="round"/>
<path d="M17.8557 17.0879L14.0158 17.9183C13.9311 17.9365 13.8438 17.9376 13.7587 17.9215C13.6737 17.9055 13.5926 17.8725 13.5202 17.8246C13.4477 17.7766 13.3854 17.7147 13.3367 17.6423C13.288 17.5698 13.2539 17.4884 13.2365 17.4026L10.5147 4.30158C10.4781 4.12852 10.5106 3.94782 10.6051 3.79892C10.6996 3.65003 10.8485 3.54503 11.0192 3.50685L14.8591 2.67641C14.9437 2.65818 15.0311 2.65708 15.1161 2.67316C15.2012 2.68925 15.2823 2.7222 15.3547 2.77013C15.4271 2.81806 15.4895 2.88002 15.5381 2.95244C15.5868 3.02486 15.6209 3.10631 15.6384 3.19211L18.3602 16.2931C18.3968 16.4662 18.3643 16.6469 18.2697 16.7958C18.1752 16.9447 18.0264 17.0497 17.8557 17.0879Z" stroke="#415674" stroke-width="1.3" stroke-linecap="round" stroke-linejoin="round"/>
<path d="M3.9375 5.97925H9.1875" stroke="#415674" stroke-width="1.3" stroke-linecap="round" stroke-linejoin="round"/>
<path d="M3.9375 15.28H9.1875" stroke="#415674" stroke-width="1.3" stroke-linecap="round" stroke-linejoin="round"/>
<path d="M10.9229 6.26826L16.0457 5.15381" stroke="#415674" stroke-width="1.3" stroke-linecap="round" stroke-linejoin="round"/>
<path d="M11.4668 8.88911L16.5905 7.77466" stroke="#415674" stroke-width="1.3" stroke-linecap="round" stroke-linejoin="round"/>
<path d="M12.8291 15.4411L17.952 14.3267" stroke="#415674" stroke-width="1.3" stroke-linecap="round" stroke-linejoin="round"/>
</g>
<defs>
<clipPath id="clip0_13_546">
<rect width="21" height="21.2593" fill="white"/>
</clipPath>
</defs>
</svg>
