<svg width="50" height="50" viewBox="0 0 50 50" fill="none" xmlns="http://www.w3.org/2000/svg">
<path d="M22.0423 32.4306H4.69064C2.79355 32.4306 1.25 30.887 1.25 28.9899V7.11946C1.25 5.22512 2.79355 3.68408 4.69064 3.68408H37.0264C38.9235 3.68408 40.4671 5.22512 40.4671 7.11946V22.6274C40.4671 22.982 40.1797 23.2693 39.8252 23.2693C39.4706 23.2693 39.1833 22.982 39.1833 22.6274V7.11946C39.1833 5.93296 38.216 4.96787 37.0264 4.96787H4.69064C3.50113 4.96787 2.53378 5.93296 2.53378 7.11946V28.9899C2.53378 30.1792 3.50113 31.1468 4.69064 31.1468H22.0423C22.3968 31.1468 22.6842 31.4341 22.6842 31.7887C22.6842 32.1432 22.3968 32.4306 22.0423 32.4306Z" fill="#234DCA" stroke="#234DCA" stroke-width="0.4"/>
<path d="M39.8231 12.369H1.89482C1.54028 12.369 1.25293 12.0817 1.25293 11.7271V7.12082C1.25293 5.22373 2.79397 3.68018 4.68805 3.68018H37.0294C38.924 3.68018 40.465 5.22373 40.465 7.12082V11.7271C40.465 12.0817 40.1777 12.369 39.8231 12.369ZM2.53671 11.0853H39.1812V7.12082C39.1812 5.93156 38.2159 4.96396 37.0294 4.96396H4.68805C3.50156 4.96396 2.53671 5.93156 2.53671 7.12082V11.0853Z" fill="#234DCA" stroke="#234DCA" stroke-width="0.4"/>
<path d="M7.22002 6.94278C6.86547 6.94278 6.57812 6.65543 6.57812 6.30089V1.89189C6.57812 1.53735 6.86547 1.25 7.22002 1.25C7.57456 1.25 7.86191 1.53735 7.86191 1.89189V6.30089C7.86191 6.65543 7.57456 6.94278 7.22002 6.94278Z" fill="#234DCA" stroke="#234DCA" stroke-width="0.4"/>
<path d="M16.3118 6.94278C15.9573 6.94278 15.6699 6.65543 15.6699 6.30089V1.89189C15.6699 1.53735 15.9573 1.25 16.3118 1.25C16.6664 1.25 16.9537 1.53735 16.9537 1.89189V6.30089C16.9537 6.65543 16.6664 6.94278 16.3118 6.94278Z" fill="#234DCA" stroke="#234DCA" stroke-width="0.4"/>
<path d="M25.4046 6.94278C25.05 6.94278 24.7627 6.65543 24.7627 6.30089V1.89189C24.7627 1.53735 25.05 1.25 25.4046 1.25C25.7591 1.25 26.0465 1.53735 26.0465 1.89189V6.30089C26.0465 6.65543 25.7591 6.94278 25.4046 6.94278Z" fill="#234DCA" stroke="#234DCA" stroke-width="0.4"/>
<path d="M34.4974 6.94278C34.1428 6.94278 33.8555 6.65543 33.8555 6.30089V1.89189C33.8555 1.53735 34.1428 1.25 34.4974 1.25C34.8519 1.25 35.1393 1.53735 35.1393 1.89189V6.30089C35.1393 6.65543 34.8519 6.94278 34.4974 6.94278Z" fill="#234DCA" stroke="#234DCA" stroke-width="0.4"/>
<path d="M11.6677 20.2695H8.75364C7.82791 20.2695 7.0752 19.5166 7.0752 18.5908V15.6767C7.0752 14.751 7.82791 13.998 8.75364 13.998H11.6677C12.5935 13.998 13.3462 14.751 13.3462 15.6767V18.5908C13.3462 19.5166 12.5935 20.2695 11.6677 20.2695ZM8.75364 15.2818C8.536 15.2818 8.35898 15.4591 8.35898 15.6767V18.5908C8.35898 18.8085 8.536 18.9857 8.75364 18.9857H11.6677C11.8854 18.9857 12.0624 18.8085 12.0624 18.5908V15.6767C12.0624 15.4591 11.8854 15.2818 11.6677 15.2818H8.75364Z" fill="#234DCA" stroke="#234DCA" stroke-width="0.4"/>
<path d="M22.3157 20.2695H19.4016C18.4759 20.2695 17.7227 19.5166 17.7227 18.5908V15.6767C17.7227 14.751 18.4759 13.998 19.4016 13.998H22.3157C23.2414 13.998 23.9941 14.751 23.9941 15.6767V18.5908C23.9941 19.5166 23.2414 20.2695 22.3157 20.2695ZM19.4016 15.2818C19.1835 15.2818 19.0064 15.4591 19.0064 15.6767V18.5908C19.0064 18.8085 19.1835 18.9857 19.4016 18.9857H22.3157C22.5333 18.9857 22.7104 18.8085 22.7104 18.5908V15.6767C22.7104 15.4591 22.5333 15.2818 22.3157 15.2818H19.4016Z" fill="#234DCA" stroke="#234DCA" stroke-width="0.4"/>
<path d="M32.9627 20.2695H30.0486C29.1228 20.2695 28.3701 19.5166 28.3701 18.5908V15.6767C28.3701 14.751 29.1228 13.998 30.0486 13.998H32.9627C33.8884 13.998 34.6416 14.751 34.6416 15.6767V18.5908C34.6416 19.5166 33.8884 20.2695 32.9627 20.2695ZM30.0486 15.2818C29.8309 15.2818 29.6539 15.4591 29.6539 15.6767V18.5908C29.6539 18.8085 29.8309 18.9857 30.0486 18.9857H32.9627C33.1808 18.9857 33.3578 18.8085 33.3578 18.5908V15.6767C33.3578 15.4591 33.1808 15.2818 32.9627 15.2818H30.0486Z" fill="#234DCA" stroke="#234DCA" stroke-width="0.4"/>
<path d="M11.6677 29.5161H8.75364C7.82791 29.5161 7.0752 28.7631 7.0752 27.8374V24.9233C7.0752 23.9976 7.82791 23.2446 8.75364 23.2446H11.6677C12.5935 23.2446 13.3462 23.9976 13.3462 24.9233V27.8374C13.3462 28.7631 12.5935 29.5161 11.6677 29.5161ZM8.75364 24.5284C8.536 24.5284 8.35898 24.7057 8.35898 24.9233V27.8374C8.35898 28.0551 8.536 28.2323 8.75364 28.2323H11.6677C11.8854 28.2323 12.0624 28.0551 12.0624 27.8374V24.9233C12.0624 24.7057 11.8854 24.5284 11.6677 24.5284H8.75364Z" fill="#234DCA" stroke="#234DCA" stroke-width="0.4"/>
<path d="M22.3157 29.5161H19.4016C18.4759 29.5161 17.7227 28.7631 17.7227 27.8374V24.9233C17.7227 23.9976 18.4759 23.2446 19.4016 23.2446H22.3157C23.2414 23.2446 23.9941 23.9976 23.9941 24.9233V27.8374C23.9941 28.7631 23.2414 29.5161 22.3157 29.5161ZM19.4016 24.5284C19.1835 24.5284 19.0064 24.7057 19.0064 24.9233V27.8374C19.0064 28.0551 19.1835 28.2323 19.4016 28.2323H22.3157C22.5333 28.2323 22.7104 28.0551 22.7104 27.8374V24.9233C22.7104 24.7057 22.5333 24.5284 22.3157 24.5284H19.4016Z" fill="#234DCA" stroke="#234DCA" stroke-width="0.4"/>
<path d="M34.8906 48.7499C27.2486 48.7499 21.0312 42.5326 21.0312 34.8906C21.0312 27.2486 27.2486 21.0315 34.8906 21.0315C42.5326 21.0315 48.7499 27.2486 48.7499 34.8906C48.7499 42.5326 42.5326 48.7499 34.8906 48.7499ZM34.8906 22.3153C27.9562 22.3153 22.315 27.9567 22.315 34.8906C22.315 41.8248 27.9562 47.4662 34.8906 47.4662C41.825 47.4662 47.4662 41.8248 47.4662 34.8906C47.4662 27.9567 41.825 22.3153 34.8906 22.3153Z" fill="#FFAA2A" stroke="#FFAA2A" stroke-width="0.4"/>
<path d="M28.3079 40.8484C27.9534 40.8484 27.666 40.561 27.666 40.2065V37.4375C27.666 37.083 27.9534 36.7957 28.3079 36.7957C28.6625 36.7957 28.9498 37.083 28.9498 37.4375V40.2065C28.9498 40.561 28.6625 40.8484 28.3079 40.8484Z" fill="#FFAA2A" stroke="#FFAA2A" stroke-width="0.4"/>
<path d="M32.6966 40.8484C32.342 40.8484 32.0547 40.5611 32.0547 40.2066V35.3558C32.0547 35.0012 32.342 34.7139 32.6966 34.7139C33.0511 34.7139 33.3385 35.0012 33.3385 35.3558V40.2066C33.3385 40.5611 33.0511 40.8484 32.6966 40.8484Z" fill="#FFAA2A" stroke="#FFAA2A" stroke-width="0.4"/>
<path d="M37.0853 40.8483C36.7307 40.8483 36.4434 40.561 36.4434 40.2064V33.274C36.4434 32.9194 36.7307 32.6321 37.0853 32.6321C37.4398 32.6321 37.7271 32.9194 37.7271 33.274V40.2064C37.7271 40.561 37.4398 40.8483 37.0853 40.8483Z" fill="#FFAA2A" stroke="#FFAA2A" stroke-width="0.4"/>
<path d="M41.4739 40.8484C41.1194 40.8484 40.832 40.561 40.832 40.2065V31.1922C40.832 30.8376 41.1194 30.5503 41.4739 30.5503C41.8285 30.5503 42.1158 30.8376 42.1158 31.1922V40.2065C42.1158 40.561 41.8285 40.8484 41.4739 40.8484Z" fill="#FFAA2A" stroke="#FFAA2A" stroke-width="0.4"/>
<path d="M28.3095 34.1398C28.0848 34.1398 27.8666 34.0217 27.7488 33.8114C27.5758 33.5022 27.6861 33.1111 27.9955 32.9378L39.0606 26.744C39.3701 26.5715 39.7607 26.6809 39.9342 26.9908C40.1072 27.2999 39.9969 27.6911 39.6875 27.8643L28.6224 34.0581C28.5231 34.1135 28.4158 34.1398 28.3095 34.1398Z" fill="#FFAA2A" stroke="#FFAA2A" stroke-width="0.4"/>
<path d="M39.3741 27.9469C39.328 27.9469 39.2813 27.9419 39.2342 27.9314L37.1646 27.4708C36.8186 27.3938 36.6004 27.0508 36.6777 26.7048C36.7539 26.3585 37.0949 26.1391 37.4434 26.2176L39.513 26.6782C39.859 26.7552 40.0772 27.0982 39.9999 27.4442C39.9337 27.7433 39.6685 27.9469 39.3741 27.9469Z" fill="#FFAA2A" stroke="#FFAA2A" stroke-width="0.4"/>
<path d="M38.6829 29.9516C38.6137 29.9516 38.543 29.9403 38.4738 29.9163C38.1388 29.8009 37.9608 29.4356 38.0761 29.1004L38.7667 27.0957C38.8815 26.761 39.2471 26.5812 39.5826 26.698C39.9176 26.8134 40.0956 27.1787 39.9803 27.5139L39.2897 29.5186C39.1984 29.7844 38.9492 29.9516 38.6829 29.9516Z" fill="#FFAA2A" stroke="#FFAA2A" stroke-width="0.4"/>
</svg>
