<svg width="48" height="48" viewBox="0 0 48 48" fill="none" xmlns="http://www.w3.org/2000/svg">
<path d="M17.5354 8.25H20.2504C20.6629 8.25 21.0004 8.5875 21.0004 9C21.0004 9.4125 20.6629 9.75 20.2504 9.75H17.5354C16.6204 9.75 15.7729 10.155 15.2104 10.86L9.86286 17.4375C9.60036 17.76 9.12786 17.805 8.80536 17.55C8.48286 17.2875 8.43036 16.815 8.69286 16.4925L14.0404 9.915C14.8954 8.8575 16.1704 8.25 17.5354 8.25Z" fill="#FFAA2A" stroke="#FFAA2A" stroke-width="0.4"/>
<path d="M39.195 17.55C39.06 17.6625 38.8875 17.715 38.7225 17.715C38.505 17.715 38.2875 17.6175 38.1375 17.4375L32.79 10.86C32.2275 10.155 31.38 9.75 30.465 9.75H23.25C22.8375 9.75 22.5 9.4125 22.5 9C22.5 8.5875 22.8375 8.25 23.25 8.25H30.465C31.83 8.25 33.105 8.8575 33.96 9.915L39.3075 16.4925C39.57 16.815 39.5175 17.2875 39.195 17.55Z" fill="#FFAA2A" stroke="#FFAA2A" stroke-width="0.4"/>
<path d="M46.4851 17.6624C46.4776 17.5874 46.4476 17.5124 46.4176 17.4449C46.4101 17.4299 46.3951 17.4149 46.3876 17.3924C46.3426 17.3174 46.2901 17.2499 46.2151 17.1899C46.2151 17.1899 46.2076 17.1899 46.2076 17.1824L40.7551 12.9599C40.4326 12.7049 39.9601 12.7649 39.7051 13.0949C39.4501 13.4174 39.5101 13.8899 39.8401 14.1449L44.2651 17.5799C38.6551 19.7624 31.3576 20.9999 24.0001 20.9999C16.6426 20.9999 9.34508 19.7624 3.73508 17.5799L8.16008 14.1449C8.49008 13.8899 8.55008 13.4174 8.29508 13.0949C8.04008 12.7649 7.56758 12.7049 7.24508 12.9599L1.79258 17.1824L1.78508 17.1899C1.71008 17.2499 1.65758 17.3174 1.61258 17.3924C1.60508 17.4149 1.59008 17.4299 1.58258 17.4449C1.55258 17.5124 1.52258 17.5874 1.51508 17.6624C1.50758 17.6774 1.50758 17.6849 1.50758 17.6999C1.50008 17.7674 1.50008 17.8424 1.50758 17.9174C2.02508 20.7149 3.57758 28.1774 6.92258 36.8399C7.59758 38.5799 9.30758 39.7499 11.1751 39.7499H27.0001C27.4126 39.7499 27.7501 39.4124 27.7501 38.9999C27.7501 38.5874 27.4126 38.2499 27.0001 38.2499H11.1751C9.92258 38.2499 8.77508 37.4699 8.32508 36.2999C5.46758 28.9049 3.93758 22.4024 3.24758 18.9974C9.02258 21.2324 16.4926 22.4999 24.0001 22.4999C31.5076 22.4999 38.9776 21.2324 44.7526 18.9974C44.0626 22.4024 42.5326 28.9049 39.6751 36.2999C39.2251 37.4699 38.0776 38.2499 36.8251 38.2499H30.0001C29.5876 38.2499 29.2501 38.5874 29.2501 38.9999C29.2501 39.4124 29.5876 39.7499 30.0001 39.7499H36.8251C38.6926 39.7499 40.4026 38.5799 41.0776 36.8399C44.4226 28.1774 45.9751 20.7149 46.4926 17.9174C46.5001 17.8424 46.5001 17.7674 46.4926 17.6999C46.4926 17.6849 46.4926 17.6774 46.4926 17.6624H46.4851Z" fill="#234DCA" stroke="#234DCA" stroke-width="0.4"/>
<path d="M28.5 27.75H26.25V25.5C26.25 25.0875 25.9125 24.75 25.5 24.75H22.5C22.0875 24.75 21.75 25.0875 21.75 25.5V27.75H19.5C19.0875 27.75 18.75 28.0875 18.75 28.5V31.5C18.75 31.9125 19.0875 32.25 19.5 32.25H21.75V34.5C21.75 34.9125 22.0875 35.25 22.5 35.25H25.5C25.9125 35.25 26.25 34.9125 26.25 34.5V32.25H28.5C28.9125 32.25 29.25 31.9125 29.25 31.5V28.5C29.25 28.0875 28.9125 27.75 28.5 27.75ZM27.75 30.75H25.5C25.0875 30.75 24.75 31.0875 24.75 31.5V33.75H23.25V31.5C23.25 31.0875 22.9125 30.75 22.5 30.75H20.25V29.25H22.5C22.9125 29.25 23.25 28.9125 23.25 28.5V26.25H24.75V28.5C24.75 28.9125 25.0875 29.25 25.5 29.25H27.75V30.75Z" fill="#FFAA2A" stroke="#FFAA2A" stroke-width="0.4"/>
</svg>
