<svg width="46" height="46" viewBox="0 0 46 46" fill="none" xmlns="http://www.w3.org/2000/svg">
<path d="M27.4989 11.9036C24.4894 11.9036 22.041 9.45521 22.041 6.44571C22.041 3.43621 24.4894 0.987793 27.4989 0.987793C30.5084 0.987793 32.9569 3.43621 32.9569 6.44571C32.9569 9.45521 30.5084 11.9036 27.4989 11.9036ZM27.4989 1.88623C24.9848 1.88623 22.9395 3.93161 22.9395 6.44571C22.9395 8.95981 24.9848 11.0052 27.4989 11.0052C30.013 11.0052 32.0584 8.95981 32.0584 6.44571C32.0584 3.93161 30.013 1.88623 27.4989 1.88623Z" fill="#FFAA2A" stroke="#FFAA2A"/>
<path d="M16.582 25.1826C16.4204 24.7109 16.3765 24.2118 16.4516 23.6993C16.8374 21.0682 18.1577 18.6388 20.1691 16.8584C22.1986 15.0621 24.7995 14.0504 27.4928 14.0098C27.4973 14.0097 27.5019 14.0097 27.5063 14.0098C32.7947 14.0894 37.3946 17.9141 38.4437 23.1039L37.563 23.2819C36.5975 18.5054 32.3656 14.9848 27.4995 14.9082C22.4415 14.9876 18.0748 18.8219 17.3405 23.8295C17.2864 24.1989 17.3171 24.5562 17.4319 24.8913L16.582 25.1826Z" fill="#FFAA2A" stroke="#FFAA2A"/>
<path d="M15.2026 39.6122C15.1265 39.6122 15.0492 39.5928 14.9785 39.552C14.7636 39.4279 14.69 39.1532 14.8141 38.9383L15.6317 37.5222C16.6189 35.8124 18.3174 34.8318 20.2917 34.8318H23.4527C25.7748 34.8318 27.793 34.291 29.8038 33.1301L43.6456 25.1386C43.8792 25.0037 44.0384 24.7861 44.0938 24.5262C44.1491 24.2662 44.0924 24.0028 43.934 23.7844C42.8555 22.2972 41.0456 22.1745 38.5545 23.4197L29.0559 28.168C28.9125 29.6424 27.666 30.7985 26.1546 30.7985H20.244C19.9958 30.7985 19.7947 30.5974 19.7947 30.3493C19.7947 30.1011 19.9958 29.9 20.244 29.9H26.1546C27.2636 29.9 28.1666 29.0001 28.1712 27.8921C28.1711 27.8865 28.1711 27.8808 28.1712 27.8752C28.1667 26.7669 27.2638 25.8668 26.1546 25.8668H18.3067C18.2586 25.8668 18.2109 25.8591 18.1653 25.844C15.0711 24.8181 11.1702 24.2461 8.44469 28.9668L5.71919 33.6876C5.59521 33.9025 5.32055 33.9763 5.10556 33.852C4.89065 33.7279 4.81707 33.4533 4.94114 33.2384L7.66664 28.5175C10.7283 23.2146 15.2307 23.9356 18.3789 24.9683H26.1547C27.5258 24.9683 28.6789 25.92 28.9883 27.1975L38.1528 22.6161C39.7839 21.8008 41.2147 21.5146 42.4047 21.765C43.3246 21.9587 44.0839 22.4606 44.6614 23.2569C44.9666 23.6778 45.0801 24.2086 44.9726 24.7134C44.8651 25.218 44.5453 25.6566 44.0949 25.9167L30.2531 33.9082C28.1001 35.1513 25.9392 35.7303 23.4528 35.7303H20.2918C18.6471 35.7303 17.2322 36.5472 16.4098 37.9715L15.5922 39.3876C15.5089 39.5317 15.3579 39.6122 15.2026 39.6122Z" fill="#234DCA" stroke="#234DCA"/>
<path d="M13.1399 45.0117C12.7462 45.0117 12.3583 44.9088 12.0092 44.7071L2.12518 39.0006C1.60031 38.6976 1.22459 38.2071 1.06709 37.6195C0.909593 37.0319 0.989823 36.4193 1.29287 35.8944L2.44278 33.9027C3.06971 32.8169 4.46318 32.4433 5.54903 33.0703L15.433 38.7769C16.5189 39.4039 16.8923 40.7973 16.2653 41.8831L15.1154 43.8748C14.8124 44.3997 14.3219 44.7755 13.7342 44.9329C13.5377 44.9856 13.338 45.0117 13.1399 45.0117ZM4.4144 33.6645C3.93859 33.6645 3.47535 33.9112 3.22082 34.3519L2.07091 36.3436C1.8879 36.6606 1.83957 37.0312 1.93489 37.387C2.0303 37.7428 2.25734 38.0395 2.5744 38.2225L12.4584 43.9291C12.7753 44.1121 13.1459 44.1606 13.5017 44.0651C13.8575 43.9698 14.1543 43.7427 14.3374 43.4256L15.4873 41.434C15.6703 41.117 15.7186 40.7464 15.6233 40.3906C15.5279 40.0348 15.3009 39.7381 14.9838 39.5551L5.09982 33.8484C4.88374 33.7238 4.64754 33.6645 4.4144 33.6645Z" fill="#234DCA" stroke="#234DCA"/>
</svg>
