<svg width="70" height="70" viewBox="0 0 70 70" fill="none" xmlns="http://www.w3.org/2000/svg">
<g clip-path="url(#clip0_13_39)">
<path fill-rule="evenodd" clip-rule="evenodd" d="M30.757 55.4483V46.8625C30.757 46.2532 30.2612 45.7573 29.6518 45.7573C29.0416 45.7573 28.5465 46.2532 28.5465 46.8625V55.4483C28.5465 56.0584 29.0416 56.5535 29.6518 56.5535C30.261 56.5536 30.757 56.0584 30.757 55.4483ZM22.6738 46.8626V55.4484C22.6738 56.0586 23.169 56.5536 23.779 56.5536C24.3891 56.5536 24.8842 56.0584 24.8842 55.4484V46.8626C24.8842 46.2533 24.3891 45.7574 23.779 45.7574C23.169 45.7573 22.6738 46.2532 22.6738 46.8626Z" fill="white"/>
<path fill-rule="evenodd" clip-rule="evenodd" d="M19.4861 56.5532H33.9437C34.5538 56.5532 35.0489 56.058 35.0489 55.448C35.0489 54.8378 34.5537 54.3428 33.9437 54.3428H19.4861C18.876 54.3428 18.3809 54.8379 18.3809 55.448C18.3807 56.058 18.8759 56.5532 19.4861 56.5532Z" fill="white"/>
<path fill-rule="evenodd" clip-rule="evenodd" d="M45.5372 45.7573H3.4503C2.82616 45.7573 2.32002 45.2519 2.32002 44.6277V10.7839C2.32002 10.1597 2.82627 9.65426 3.4503 9.65426H14.3283C14.9383 9.65426 15.4335 9.1591 15.4335 8.54905C15.4335 7.93901 14.9383 7.44385 14.3283 7.44385C14.3283 7.44385 7.19416 7.44385 3.4503 7.44385C1.60525 7.44373 0.109375 8.9388 0.109375 10.7839V44.6277C0.109375 46.4728 1.60514 47.9679 3.45019 47.9679H45.5371C46.1473 47.9679 46.6423 47.4727 46.6423 46.8626C46.6424 46.2532 46.1473 45.7573 45.5372 45.7573ZM51.1099 24.0264V34.1588C51.1099 34.7681 51.6051 35.264 52.2151 35.264C52.8253 35.264 53.3204 34.7681 53.3204 34.1588V24.0264C53.3204 23.4163 52.8252 22.9212 52.2151 22.9212C51.6051 22.9211 51.1099 23.4163 51.1099 24.0264Z" fill="white"/>
<path fill-rule="evenodd" clip-rule="evenodd" d="M45.3323 36.876H1.21458C0.604417 36.876 0.109375 37.3704 0.109375 37.9812V44.6276C0.109375 45.5133 0.461557 46.3628 1.0879 46.9898C1.71425 47.6162 2.56378 47.9677 3.45019 47.9677H45.5371C46.1473 47.9677 46.6423 47.4725 46.6423 46.8625C46.6423 46.2531 46.1472 45.7573 45.5371 45.7573H3.45019C3.15025 45.7573 2.86291 45.6387 2.6507 45.4265C2.43918 45.2149 2.3199 44.9276 2.3199 44.6278V39.0867H45.3323C45.9425 39.0867 46.4375 38.5916 46.4375 37.9815C46.4375 37.3715 45.9423 36.876 45.3323 36.876Z" fill="white"/>
<path fill-rule="evenodd" clip-rule="evenodd" d="M52.2157 33.0532C47.1307 33.0532 43.0029 37.181 43.0029 42.266C43.0029 47.351 47.1307 51.4788 52.2157 51.4788C57.3007 51.4788 61.4292 47.351 61.4292 42.266C61.4292 37.181 57.3006 33.0532 52.2157 33.0532ZM52.2157 35.2637C56.0805 35.2637 59.2187 38.4013 59.2187 42.266C59.2187 46.1308 56.0805 49.2683 52.2157 49.2683C48.351 49.2683 45.2135 46.1308 45.2135 42.266C45.2135 38.4013 48.351 35.2637 52.2157 35.2637Z" fill="white"/>
<path fill-rule="evenodd" clip-rule="evenodd" d="M37.8596 70C44.5309 70 59.9037 70 66.5757 69.9779C67.7127 69.9779 68.773 69.3913 69.3809 68.4261C69.9881 67.4601 70.0566 66.2503 69.5622 65.2223C69.5615 65.2208 69.5615 65.2201 69.5607 65.2186C66.4395 58.783 59.8418 54.3428 52.2155 54.3428C44.5906 54.3428 37.9944 58.7815 34.8518 65.2053C34.8503 65.2075 34.8496 65.2097 34.8481 65.2119C34.3507 66.2471 34.42 67.4658 35.0315 68.4378C35.6432 69.4105 36.7109 70 37.8596 70ZM37.8596 67.7895C37.8596 67.7895 37.8596 67.7895 37.8589 67.7895C37.4705 67.7895 37.1096 67.5898 36.9024 67.2611C36.6961 66.9332 36.6725 66.5221 36.8398 66.1721C39.6236 60.4852 45.4638 56.5534 52.2155 56.5534C58.9664 56.5534 64.8066 60.4845 67.5706 66.181C67.7349 66.5236 67.712 66.9275 67.5094 67.2495C67.3068 67.5715 66.9524 67.7675 66.5722 67.7675C66.5707 67.7675 66.5693 67.7675 66.5685 67.7675C59.8986 67.7895 44.5295 67.7895 37.8596 67.7895Z" fill="white"/>
<path fill-rule="evenodd" clip-rule="evenodd" d="M29.1176 12.39V3.34012C29.1176 2.71597 29.6239 2.21053 30.2479 2.21053H54.8157C55.1148 2.21053 55.4022 2.32992 55.6145 2.54133C55.8267 2.75354 55.9453 3.04088 55.9453 3.34012V17.7512C55.9453 18.0504 55.8267 18.3377 55.6145 18.55C55.4023 18.7616 55.1149 18.8808 54.8157 18.8808H38.5197C37.9104 18.8808 37.4145 19.376 37.4145 19.986C37.4145 20.5961 37.9104 21.0913 38.5197 21.0913H54.8157C55.7014 21.0913 56.5509 20.7391 57.1773 20.1127C57.8036 19.4864 58.1558 18.6368 58.1558 17.7511C58.1558 14.1178 58.1558 6.97336 58.1558 3.34C58.1558 2.45429 57.8036 1.60476 57.1773 0.978411C56.5511 0.352182 55.7015 0 54.8158 0C49.4059 0 35.6572 0 30.248 0C28.403 0 26.9072 1.49576 26.9072 3.34012V12.39C26.9072 13.0001 27.4031 13.4952 28.0124 13.4952C28.6225 13.4952 29.1176 13.0001 29.1176 12.39Z" fill="white"/>
<path fill-rule="evenodd" clip-rule="evenodd" d="M49.6683 5.14307H40.1697C39.5595 5.14307 39.0645 5.63822 39.0645 6.24827C39.0645 6.85832 39.5596 7.35348 40.1697 7.35348H49.6683C50.2776 7.35348 50.7735 6.85832 50.7735 6.24827C50.7735 5.63822 50.2776 5.14307 49.6683 5.14307Z" fill="white"/>
<path fill-rule="evenodd" clip-rule="evenodd" d="M49.6689 9.44043H41.9968C41.3866 9.44043 40.8916 9.93559 40.8916 10.5456C40.8916 11.1557 41.3868 11.6508 41.9968 11.6508H49.6688C50.2781 11.6508 50.774 11.1557 50.774 10.5456C50.7741 9.93559 50.2782 9.44043 49.6689 9.44043Z" fill="white"/>
<path fill-rule="evenodd" clip-rule="evenodd" d="M49.6683 13.7378H44.1199C43.5097 13.7378 43.0146 14.233 43.0146 14.843C43.0146 15.4532 43.5098 15.9482 44.1199 15.9482H49.6683C50.2777 15.9482 50.7735 15.453 50.7735 14.843C50.7735 14.233 50.2777 13.7378 49.6683 13.7378Z" fill="white"/>
<path fill-rule="evenodd" clip-rule="evenodd" d="M19.0133 3.47705C15.7823 3.47705 13.1592 6.10021 13.1592 9.33122C13.1592 12.5622 15.7823 15.1862 19.0133 15.1862C22.2452 15.1862 24.8683 12.5623 24.8683 9.33122C24.8683 6.10009 22.2452 3.47705 19.0133 3.47705ZM19.0133 5.68758C21.025 5.68758 22.6578 7.32042 22.6578 9.33122C22.6578 11.3428 21.025 12.9757 19.0133 12.9757C17.0025 12.9757 15.3697 11.3428 15.3697 9.33122C15.3697 7.32042 17.0025 5.68758 19.0133 5.68758Z" fill="white"/>
<path fill-rule="evenodd" clip-rule="evenodd" d="M27.3457 17.107H15.6366C12.4564 17.107 9.74117 19.4015 9.21064 22.5375C8.77813 25.0981 8.2609 28.1567 7.94327 30.0313C7.81659 30.7843 8.0273 31.5558 8.52026 32.1387C9.01323 32.7223 9.73897 33.059 10.5024 33.059H22.6242C24.0573 33.059 25.2194 31.897 25.2194 30.4638V24.4644H27.9935C29.4761 24.4644 30.9018 23.8911 31.9717 22.8648C32.8611 22.0107 34.0401 20.8804 35.0186 19.9417C35.7223 19.266 36.129 18.339 36.1497 17.3635C36.1696 16.3982 35.8093 15.4639 35.1469 14.7624C35.1403 14.755 35.1122 14.7255 35.1049 14.7189C34.4314 14.0277 33.5134 13.6291 32.5481 13.6092C31.5725 13.5886 30.6295 13.957 29.925 14.632L27.3457 17.107ZM27.79 19.3175C28.0752 19.3175 28.3493 19.207 28.5549 19.0095C28.5549 19.0095 30.1207 17.5078 31.4551 16.2272C31.7358 15.9582 32.1123 15.8108 32.5021 15.8189C32.8868 15.827 33.2538 15.9862 33.5219 16.2617C33.5249 16.2646 33.5367 16.2765 33.5396 16.2794C33.8034 16.5595 33.947 16.9322 33.9389 17.3176C33.9309 17.7066 33.7687 18.0765 33.4881 18.3463C32.5095 19.285 31.3313 20.4153 30.4412 21.2694C29.7825 21.9008 28.9057 22.2538 27.9934 22.2538H24.1139C23.5039 22.2538 23.0087 22.7483 23.0087 23.359V30.4637C23.0087 30.6759 22.8363 30.8483 22.6241 30.8483H10.5023C10.3896 30.8483 10.282 30.7982 10.2082 30.712C10.1353 30.6258 10.1043 30.5109 10.1227 30.3996C10.4403 28.5251 10.9576 25.4664 11.3901 22.9059C11.7409 20.834 13.5351 19.3175 15.6365 19.3175H27.79Z" fill="white"/>
<path fill-rule="evenodd" clip-rule="evenodd" d="M14.7674 32.1383L15.9405 25.2024C16.0422 24.6004 15.6361 24.03 15.0349 23.9284C14.4336 23.826 13.8625 24.2319 13.7609 24.8333L12.5879 31.7699C12.4862 32.3712 12.8922 32.9423 13.4935 33.0439C14.0947 33.1456 14.6658 32.7402 14.7674 32.1383Z" fill="white"/>
<path fill-rule="evenodd" clip-rule="evenodd" d="M35.4891 16.0233L37.8035 9.71225C38.0135 9.13895 37.7188 8.50383 37.1463 8.29381C36.573 8.0838 35.9379 8.37853 35.7279 8.95113L33.4134 15.2622C33.2034 15.8355 33.4982 16.4706 34.0706 16.6806C34.6439 16.8905 35.2791 16.5958 35.4891 16.0233Z" fill="white"/>
<path fill-rule="evenodd" clip-rule="evenodd" d="M25.1833 43.5273H28.2464C28.8564 43.5273 29.3516 43.0321 29.3516 42.4221C29.3516 41.8119 28.8564 41.3169 28.2464 41.3169H25.1833C24.5733 41.3169 24.0781 41.8121 24.0781 42.4221C24.0781 43.0321 24.5733 43.5273 25.1833 43.5273Z" fill="white"/>
</g>
<defs>
<clipPath id="clip0_13_39">
<rect width="70" height="70" fill="white"/>
</clipPath>
</defs>
</svg>
