<svg width="70" height="70" viewBox="0 0 70 70" fill="none" xmlns="http://www.w3.org/2000/svg">
<path d="M21.735 35.3285C24.9075 35.3285 27.4885 32.7476 27.4885 29.5751C27.4885 26.4026 24.9075 23.8216 21.735 23.8216C18.5626 23.8216 15.9816 26.4026 15.9816 29.5751C15.9816 32.7476 18.5626 35.3285 21.735 35.3285ZM21.735 26.0091C23.7013 26.0091 25.301 27.6088 25.301 29.5751C25.301 31.5414 23.7013 33.141 21.735 33.141C19.7687 33.141 18.1691 31.5414 18.1691 29.5751C18.1691 27.6088 19.7687 26.0091 21.735 26.0091ZM65.6291 30.8473V22.9575C65.6291 22.3535 65.1394 21.8638 64.5353 21.8638H60.7805V21.3689C60.7805 20.9163 60.5019 20.5107 60.0797 20.3481L58.6551 19.7997C58.4322 19.043 58.1298 18.3135 57.7515 17.6202L58.3715 16.2243C58.5551 15.8108 58.4653 15.3269 58.1454 15.0069L55.8987 12.7602C55.5786 12.4404 55.095 12.3502 54.6813 12.5341L53.2847 13.1544C52.5914 12.7761 51.8622 12.4738 51.106 12.2511L50.5573 10.8261C50.3949 10.4039 49.9891 10.1253 49.5366 10.1253H49.0418V8.08145C50.4823 7.61811 51.5278 6.26582 51.5278 4.67332C51.5279 2.69951 49.9221 1.09375 47.9483 1.09375C45.9744 1.09375 44.3686 2.69951 44.3686 4.67332C44.3686 6.26568 45.414 7.61797 46.8545 8.08131V10.1251H46.3597C45.9071 10.1251 45.5015 10.4037 45.3389 10.8259L44.7904 12.251C44.0342 12.4735 43.305 12.776 42.6115 13.1543L41.2149 12.534C40.8014 12.3502 40.3177 12.4403 39.9976 12.7601L37.7509 15.0068C37.431 15.3267 37.3412 15.8106 37.5248 16.2241L37.755 16.7426H22.8287V12.4497C24.2692 11.9864 25.3147 10.634 25.3147 9.04162C25.3147 7.06781 23.7089 5.46205 21.7351 5.46205C19.7612 5.46205 18.1554 7.06781 18.1554 9.04162C18.1554 10.634 19.2008 11.9863 20.6412 12.4497V16.7429H7.20355C4.27135 16.7429 1.88574 19.1285 1.88574 22.0607V51.1208C1.88574 54.0531 4.27135 56.4387 7.20355 56.4387H20.7246V60.9623H15.3886C12.7993 60.9623 10.6926 62.7442 10.6926 64.9343V67.8125C10.6926 68.4165 11.1823 68.9062 11.7864 68.9062H49.1195C49.7235 68.9062 50.2132 68.4165 50.2132 67.8125V64.9343C50.2132 62.7442 48.1067 60.9623 45.5172 60.9623H40.1812V56.4387H53.7024C56.6346 56.4387 59.0202 54.0531 59.0202 51.1208V25.9745L60.0795 25.5668C60.5017 25.4044 60.7803 24.9986 60.7803 24.5461V24.0513H63.4414V30.8473C62.0011 31.3106 60.9556 32.6629 60.9556 34.2553C60.9556 36.2291 62.5614 37.8349 64.5352 37.8349C66.509 37.8349 68.1148 36.2291 68.1148 34.2553C68.1149 32.6629 67.0694 31.3106 65.6291 30.8473ZM47.9483 3.28125C48.7159 3.28125 49.3404 3.90578 49.3404 4.67332C49.3404 5.44086 48.716 6.06539 47.9483 6.06539C47.1807 6.06539 46.5561 5.44086 46.5561 4.67332C46.5561 3.90578 47.1808 3.28125 47.9483 3.28125ZM21.7351 7.64955C22.5027 7.64955 23.1272 8.27395 23.1272 9.04162C23.1272 9.8093 22.5028 10.4338 21.7351 10.4338C20.9674 10.4338 20.3429 9.8093 20.3429 9.04162C20.3429 8.27395 20.9673 7.64955 21.7351 7.64955ZM41.0134 14.8381L42.2334 15.3798C42.5629 15.5262 42.9433 15.5006 43.2507 15.3115C44.0617 14.8122 44.9408 14.4478 45.8639 14.228C46.2147 14.1446 46.502 13.8935 46.6315 13.5569L47.1105 12.3125H48.7857L49.2648 13.5569C49.3943 13.8935 49.6815 14.1445 50.0323 14.228C50.9553 14.4476 51.8346 14.8121 52.6454 15.3115C52.9528 15.5008 53.3334 15.5261 53.6628 15.3798L54.8827 14.8381L56.0672 16.0228L55.5257 17.242C55.3793 17.5718 55.4048 17.9524 55.5941 18.2595C56.0932 19.0699 56.4577 19.9493 56.6778 20.8734C56.7612 21.2242 57.0124 21.5115 57.3488 21.6409L58.5928 22.1197V23.7951L57.3483 24.274C57.0117 24.4035 56.7607 24.6907 56.6773 25.0415C56.4577 25.9645 56.0932 26.8438 55.5938 27.6548C55.4047 27.9619 55.3793 28.3425 55.5256 28.672L56.0672 29.8919L54.8827 31.0766L53.6635 30.5352C53.3341 30.3888 52.9533 30.4142 52.646 30.6035C51.8354 31.1027 50.956 31.4673 50.0322 31.6872C49.6814 31.7707 49.3941 32.0217 49.2647 32.3583L48.7857 33.6023H47.1105L46.6315 32.3579C46.502 32.0213 46.2147 31.7703 45.8641 31.6868C44.9407 31.4671 44.0614 31.1026 43.251 30.6033C42.9436 30.414 42.5629 30.3888 42.2335 30.5349L41.0134 31.0767L39.8289 29.8921L40.3704 28.6728C40.5167 28.3432 40.4913 27.9625 40.3021 27.6553C39.803 26.8449 39.4386 25.9655 39.2184 25.0413C39.135 24.6904 38.8839 24.4033 38.5474 24.2739L37.3034 23.7951V22.1197L38.5477 21.6408C38.8843 21.5113 39.1353 21.2241 39.2187 20.8733C39.4384 19.95 39.8029 19.0706 40.3022 18.2599C40.4914 17.9527 40.5169 17.5721 40.3706 17.2424L39.8289 16.0228L41.0134 14.8381ZM14.1573 23.8603L13.6157 22.6406L14.8002 21.456L16.0201 21.9976C16.3495 22.1441 16.7304 22.1186 17.0375 21.9294C17.8483 21.4303 18.7274 21.0656 19.6508 20.8459C20.0015 20.7624 20.2888 20.5114 20.4182 20.1748L20.8973 18.9304H22.5725L23.0516 20.1748C23.1811 20.5114 23.4683 20.7624 23.819 20.8459C24.7425 21.0656 25.6218 21.4303 26.4321 21.9294C26.7394 22.1186 27.1202 22.1439 27.4496 21.9978L28.6696 21.456L29.8542 22.6406L29.3126 23.8599C29.1663 24.1895 29.1918 24.5701 29.381 24.8773C29.8801 25.6881 30.2448 26.5675 30.4645 27.4911C30.548 27.8421 30.799 28.1292 31.1356 28.2588L32.3796 28.7376V30.413L31.1352 30.8919C30.7987 31.0213 30.5476 31.3085 30.4642 31.6593C30.2445 32.5825 29.8799 33.4618 29.3806 34.2727C29.1915 34.5797 29.1661 34.9604 29.3123 35.29L29.8542 36.5099L28.6696 37.6946L27.4502 37.153C27.1209 37.0068 26.7401 37.032 26.4328 37.2214C25.6222 37.7206 24.7428 38.0852 23.819 38.305C23.4682 38.3884 23.1809 38.6396 23.0514 38.9762L22.5725 40.2202H20.8973L20.4182 38.9758C20.2888 38.6392 20.0015 38.3882 19.6508 38.3046C18.7274 38.0849 17.8482 37.7204 17.0377 37.2211C16.7304 37.0319 16.3496 37.0066 16.0203 37.1528L14.8002 37.6946L13.6157 36.5099L14.1572 35.2907C14.3035 34.961 14.2781 34.5804 14.0888 34.2732C13.5898 33.4627 13.2253 32.5834 13.0052 31.6591C12.9218 31.3083 12.6707 31.0212 12.3342 30.8917L11.0902 30.413V28.7376L12.3345 28.2587C12.6709 28.1292 12.9221 27.8421 13.0055 27.4913C13.2253 26.5676 13.5898 25.6882 14.089 24.8778C14.2782 24.5705 14.3036 24.1899 14.1573 23.8603ZM36.0064 20.2751H30.5827L29.6856 19.378C29.3655 19.058 28.8818 18.9679 28.4682 19.1517L27.0715 19.772C26.437 19.4257 25.7711 19.1464 25.083 18.9302H37.5416C37.4308 19.2161 37.3284 19.5051 37.2418 19.7996L36.0064 20.2751ZM11.2221 22.4626C11.2298 22.5911 11.2573 22.7196 11.3115 22.842L11.9317 24.2385C11.5534 24.9316 11.2511 25.6609 11.0284 26.4173L9.60352 26.9659C9.18133 27.1283 8.9027 27.5341 8.9027 27.9866V31.1638C8.9027 31.6163 9.18133 32.022 9.60352 32.1846L11.0281 32.7329C11.251 33.4897 11.5534 34.2192 11.9316 34.9124L11.3115 36.3083C11.1279 36.7217 11.2178 37.2057 11.5377 37.5256L13.7844 39.7723C14.1044 40.0922 14.5881 40.1822 15.0017 39.9986L16.3984 39.3783C17.0915 39.7566 17.8207 40.0589 18.5772 40.2816L19.1257 41.7066C19.2881 42.1289 19.6939 42.4074 20.1464 42.4074H23.3237C23.7762 42.4074 24.1818 42.1288 24.3444 41.7066L24.8928 40.2821C25.6494 40.0593 26.3789 39.7569 27.0722 39.3786L28.4682 39.9986C28.8817 40.1821 29.3657 40.0922 29.6856 39.7723L30.0354 39.4224L32.6326 42.0196C32.8378 42.2246 33.1159 42.3399 33.406 42.3399H41.2957C41.7591 43.7802 43.1114 44.8257 44.7037 44.8257C46.6777 44.8257 48.2834 43.2199 48.2834 41.2461C48.2834 39.2723 46.6777 37.6666 44.7037 37.6666C43.1114 37.6666 41.7591 38.7121 41.2957 40.1524H33.8591L31.5823 37.8756L31.9323 37.5256C32.2522 37.2057 32.342 36.7218 32.1584 36.3083L31.5381 34.9117C31.9164 34.2184 32.2187 33.4893 32.4414 32.7329L33.8664 32.1844C34.2886 32.022 34.5673 31.6162 34.5673 31.1637V27.9865C34.5673 27.5339 34.2886 27.1283 33.8664 26.9657L32.442 26.4175C32.2191 25.6609 31.9167 24.9313 31.5384 24.2379L32.1584 22.842C32.2127 22.7196 32.2403 22.5913 32.2478 22.4628H35.1161V24.5462C35.1161 24.9987 35.3947 25.4044 35.8169 25.567L37.2415 26.1153C37.4643 26.8721 37.7668 27.6016 38.1449 28.2949L37.5249 29.6908C37.3413 30.1042 37.4311 30.5882 37.751 30.9081L39.9979 33.1547C40.3177 33.4746 40.8015 33.5646 41.2151 33.381L42.6118 32.7607C43.3048 33.139 44.0341 33.4413 44.7905 33.664L45.3391 35.089C45.5015 35.5113 45.9073 35.7898 46.3598 35.7898H49.537C49.9895 35.7898 50.3952 35.5112 50.5578 35.089L51.1061 33.6645C51.8629 33.4417 52.5923 33.1393 53.2856 32.761L53.3006 32.7677V47.1358H7.60537V22.4626H11.2221ZM43.3117 41.2461C43.3117 40.4786 43.9361 39.8541 44.7037 39.8541C45.4714 39.8541 46.0959 40.4786 46.0959 41.2461C46.0959 42.0137 45.4714 42.6382 44.7037 42.6382C43.9361 42.6382 43.3117 42.0137 43.3117 41.2461ZM48.0257 64.9343V66.7188H12.8801V64.9343C12.8801 63.967 14.0288 63.1498 15.3886 63.1498H45.5173C46.877 63.1498 48.0257 63.967 48.0257 64.9343ZM37.9938 60.9623H22.9121V56.4387H37.9938V60.9623ZM53.7026 54.2512H7.20355C5.47748 54.2512 4.07324 52.847 4.07324 51.1208V22.0607C4.07324 20.3346 5.47748 18.9304 7.20355 18.9304H18.3871C17.699 19.1465 17.0331 19.426 16.3984 19.7721L15.0019 19.1518C14.5883 18.9681 14.1046 19.0582 13.7845 19.378L12.8874 20.2751H7.09746C6.17133 20.2751 5.41787 21.0286 5.41787 21.9547V48.2295C5.41787 48.8335 5.9076 49.3232 6.51162 49.3232H54.3944C54.9984 49.3232 55.4881 48.8335 55.4881 48.2295V33.4126C55.6395 33.3594 55.7804 33.273 55.8988 33.1546L56.833 32.2204V51.1208C56.8329 52.8469 55.4286 54.2512 53.7026 54.2512ZM64.5353 35.6474C63.7678 35.6474 63.1433 35.023 63.1433 34.2553C63.1433 33.4876 63.7677 32.8632 64.5353 32.8632C65.303 32.8632 65.9274 33.4878 65.9274 34.2553C65.9274 35.0228 65.303 35.6474 64.5353 35.6474ZM47.9482 28.7109C51.1208 28.7109 53.7017 26.13 53.7017 22.9575C53.7017 19.785 51.1208 17.204 47.9482 17.204C44.7758 17.204 42.1948 19.785 42.1948 22.9575C42.1948 26.13 44.7758 28.7109 47.9482 28.7109ZM47.9482 19.3915C49.9145 19.3915 51.5142 20.9912 51.5142 22.9575C51.5142 24.9238 49.9145 26.5234 47.9482 26.5234C45.9819 26.5234 44.3823 24.9238 44.3823 22.9575C44.3823 20.9912 45.9819 19.3915 47.9482 19.3915Z" fill="white"/>
</svg>
