<svg width="20" height="20" viewBox="0 0 20 20" fill="none" xmlns="http://www.w3.org/2000/svg">
<g clip-path="url(#clip0_13_313)">
<path d="M16.875 2.5H3.125C2.77982 2.5 2.5 2.77982 2.5 3.125V16.875C2.5 17.2202 2.77982 17.5 3.125 17.5H16.875C17.2202 17.5 17.5 17.2202 17.5 16.875V3.125C17.5 2.77982 17.2202 2.5 16.875 2.5Z" stroke="white" stroke-width="1.5" stroke-linecap="round" stroke-linejoin="round"/>
<path d="M9.375 8.75V13.75" stroke="white" stroke-width="1.5" stroke-linecap="round" stroke-linejoin="round"/>
<path d="M6.875 8.75V13.75" stroke="white" stroke-width="1.5" stroke-linecap="round" stroke-linejoin="round"/>
<path d="M9.375 10.9375C9.375 10.3573 9.60547 9.80094 10.0157 9.3907C10.4259 8.98047 10.9823 8.75 11.5625 8.75C12.1427 8.75 12.6991 8.98047 13.1093 9.3907C13.5195 9.80094 13.75 10.3573 13.75 10.9375V13.75" stroke="white" stroke-width="1.5" stroke-linecap="round" stroke-linejoin="round"/>
<path d="M6.875 7.34375C7.30647 7.34375 7.65625 6.99397 7.65625 6.5625C7.65625 6.13103 7.30647 5.78125 6.875 5.78125C6.44353 5.78125 6.09375 6.13103 6.09375 6.5625C6.09375 6.99397 6.44353 7.34375 6.875 7.34375Z" fill="white"/>
</g>
<defs>
<clipPath id="clip0_13_313">
<rect width="20" height="20" fill="white"/>
</clipPath>
</defs>
</svg>
