<svg width="44" height="44" viewBox="0 0 44 44" fill="none" xmlns="http://www.w3.org/2000/svg">
<g clip-path="url(#clip0_13_360)">
<path d="M27.5 7.07764C29.8126 7.67452 31.9221 8.86232 33.6131 10.5197C35.3041 12.1771 36.516 14.2447 37.125 16.5113" stroke="#FF9B25" stroke-width="3" stroke-linecap="round" stroke-linejoin="round"/>
<path d="M26.125 12.4683C28.9644 13.2128 30.8653 15.076 31.625 17.8589" stroke="#FF9B25" stroke-width="3" stroke-linecap="round" stroke-linejoin="round"/>
<path d="M28.2545 24.8231C28.4449 24.6989 28.664 24.6232 28.8918 24.6029C29.1195 24.5826 29.3489 24.6184 29.5591 24.7069L37.6647 28.2664C37.9378 28.3808 38.1658 28.5789 38.3146 28.8309C38.4633 29.083 38.5247 29.3755 38.4897 29.6646C38.2227 31.6205 37.2399 33.4147 35.7243 34.7137C34.2087 36.0127 32.2633 36.7279 30.25 36.7264C24.0506 36.7264 18.105 34.3126 13.7214 30.0161C9.33772 25.7196 6.875 19.8922 6.875 13.816C6.87346 11.8427 7.6032 9.936 8.9285 8.45051C10.2538 6.96501 12.0844 6.00185 14.08 5.74012C14.375 5.70578 14.6734 5.76599 14.9306 5.91175C15.1877 6.05752 15.3898 6.28099 15.5066 6.54873L19.1383 14.5C19.2275 14.7042 19.2638 14.9269 19.2441 15.1482C19.2243 15.3695 19.149 15.5826 19.0248 15.7685L15.3519 20.049C15.2216 20.2417 15.1445 20.4642 15.1283 20.6948C15.112 20.9254 15.1571 21.1562 15.2591 21.3646C16.6805 24.2167 19.6883 27.1293 22.6067 28.509C22.8205 28.6085 23.0571 28.6517 23.2931 28.6342C23.5291 28.6168 23.7563 28.5394 23.9525 28.4096L28.2545 24.8231Z" stroke="#FF9B25" stroke-width="3" stroke-linecap="round" stroke-linejoin="round"/>
</g>
<defs>
<clipPath id="clip0_13_360">
<rect width="44" height="43.1254" fill="white" transform="translate(0 0.339355)"/>
</clipPath>
</defs>
</svg>
