<svg width="44" height="44" viewBox="0 0 44 44" fill="none" xmlns="http://www.w3.org/2000/svg">
<g clip-path="url(#clip0_2233_7334)">
<path d="M27.5 6.875C29.8126 7.48399 31.9221 8.69587 33.6131 10.3869C35.3041 12.0779 36.516 14.1874 37.125 16.5" stroke="#234DCA" stroke-width="3" stroke-linecap="round" stroke-linejoin="round"/>
<path d="M26.125 12.375C28.9644 13.1347 30.8653 15.0356 31.625 17.875" stroke="#234DCA" stroke-width="3" stroke-linecap="round" stroke-linejoin="round"/>
<path d="M28.2545 24.9803C28.4449 24.8536 28.664 24.7764 28.8918 24.7557C29.1195 24.735 29.3489 24.7714 29.5591 24.8617L37.6647 28.4935C37.9378 28.6102 38.1658 28.8123 38.3146 29.0694C38.4633 29.3266 38.5247 29.625 38.4897 29.92C38.2227 31.9156 37.2399 33.7462 35.7243 35.0715C34.2087 36.3968 32.2633 37.1266 30.25 37.125C24.0506 37.125 18.105 34.6623 13.7214 30.2786C9.33772 25.895 6.875 19.9495 6.875 13.75C6.87346 11.7367 7.6032 9.79131 8.9285 8.27569C10.2538 6.76007 12.0844 5.77736 14.08 5.51034C14.375 5.47529 14.6734 5.53673 14.9306 5.68545C15.1877 5.83417 15.3898 6.06217 15.5066 6.33534L19.1383 14.4478C19.2275 14.6562 19.2638 14.8834 19.2441 15.1092C19.2243 15.335 19.149 15.5524 19.0248 15.7421L15.3519 20.1094C15.2216 20.306 15.1445 20.533 15.1283 20.7683C15.112 21.0036 15.1571 21.2391 15.2591 21.4517C16.6805 24.3616 19.6883 27.3333 22.6067 28.741C22.8205 28.8425 23.0571 28.8866 23.2931 28.8688C23.5291 28.851 23.7563 28.772 23.9525 28.6395L28.2545 24.9803Z" stroke="#234DCA" stroke-width="3" stroke-linecap="round" stroke-linejoin="round"/>
</g>
<defs>
<clipPath id="clip0_2233_7334">
<rect width="44" height="44" fill="white"/>
</clipPath>
</defs>
</svg>
