<svg width="148" height="27" viewBox="0 0 148 27" fill="none" xmlns="http://www.w3.org/2000/svg">
<g clip-path="url(#clip0_13_170)">
<path d="M24.2942 11.8497L19.6218 15.9274L21.0215 21.9984C21.0955 22.3158 21.0744 22.6479 20.9607 22.9533C20.847 23.2588 20.6458 23.5239 20.3823 23.7156C20.1187 23.9073 19.8045 24.0171 19.4789 24.0311C19.1533 24.0452 18.8308 23.963 18.5516 23.7948L13.2566 20.5832L7.97302 23.7948C7.69389 23.963 7.37136 24.0452 7.04577 24.0311C6.72017 24.0171 6.40595 23.9073 6.1424 23.7156C5.87884 23.5239 5.67764 23.2588 5.56395 22.9533C5.45026 22.6479 5.42912 22.3158 5.50319 21.9984L6.90076 15.9336L2.22735 11.8497C1.98017 11.6365 1.80143 11.3551 1.71355 11.0407C1.62567 10.7264 1.63256 10.3931 1.73335 10.0826C1.83415 9.77214 2.02436 9.49834 2.28014 9.29556C2.53592 9.09277 2.84588 8.97001 3.17115 8.94268L9.33122 8.40913L11.7358 2.67383C11.8613 2.37288 12.0732 2.11582 12.3445 1.93501C12.6159 1.7542 12.9347 1.65771 13.2608 1.65771C13.5869 1.65771 13.9057 1.7542 14.177 1.93501C14.4484 2.11582 14.6602 2.37288 14.7858 2.67383L17.1976 8.40913L23.3556 8.94268C23.6809 8.97001 23.9908 9.09277 24.2466 9.29556C24.5024 9.49834 24.6926 9.77214 24.7934 10.0826C24.8942 10.3931 24.9011 10.7264 24.8132 11.0407C24.7253 11.3551 24.5466 11.6365 24.2994 11.8497H24.2942Z" fill="#FFAA2A"/>
</g>
<g clip-path="url(#clip1_13_170)">
<path d="M54.4319 11.8497L49.7595 15.9274L51.1592 21.9984C51.2332 22.3158 51.2121 22.6479 51.0984 22.9533C50.9847 23.2588 50.7835 23.5239 50.52 23.7156C50.2564 23.9073 49.9422 24.0171 49.6166 24.0311C49.291 24.0452 48.9685 23.963 48.6893 23.7948L43.3943 20.5832L38.1107 23.7948C37.8316 23.963 37.5091 24.0452 37.1835 24.0311C36.8579 24.0171 36.5436 23.9073 36.2801 23.7156C36.0165 23.5239 35.8153 23.2588 35.7016 22.9533C35.588 22.6479 35.5668 22.3158 35.6409 21.9984L37.0385 15.9336L32.365 11.8497C32.1179 11.6365 31.9391 11.3551 31.8512 11.0407C31.7634 10.7264 31.7703 10.3931 31.871 10.0826C31.9718 9.77214 32.1621 9.49834 32.4178 9.29556C32.6736 9.09277 32.9836 8.97001 33.3088 8.94268L39.4689 8.40913L41.8735 2.67383C41.999 2.37288 42.2108 2.11582 42.4822 1.93501C42.7536 1.7542 43.0724 1.65771 43.3985 1.65771C43.7246 1.65771 44.0434 1.7542 44.3147 1.93501C44.5861 2.11582 44.7979 2.37288 44.9235 2.67383L47.3353 8.40913L53.4933 8.94268C53.8185 8.97001 54.1285 9.09277 54.3843 9.29556C54.6401 9.49834 54.8303 9.77214 54.9311 10.0826C55.0319 10.3931 55.0388 10.7264 54.9509 11.0407C54.863 11.3551 54.6843 11.6365 54.4371 11.8497H54.4319Z" fill="#FFAA2A"/>
</g>
<g clip-path="url(#clip2_13_170)">
<path d="M84.5715 11.8497L79.8992 15.9274L81.2988 21.9984C81.3729 22.3158 81.3517 22.6479 81.2381 22.9533C81.1244 23.2588 80.9232 23.5239 80.6596 23.7156C80.396 23.9073 80.0818 24.0171 79.7562 24.0311C79.4306 24.0452 79.1081 23.963 78.829 23.7948L73.534 20.5832L68.2504 23.7948C67.9712 23.963 67.6487 24.0452 67.3231 24.0311C66.9975 24.0171 66.6833 23.9073 66.4197 23.7156C66.1562 23.5239 65.955 23.2588 65.8413 22.9533C65.7276 22.6479 65.7065 22.3158 65.7805 21.9984L67.1781 15.9336L62.5047 11.8497C62.2575 11.6365 62.0788 11.3551 61.9909 11.0407C61.903 10.7264 61.9099 10.3931 62.0107 10.0826C62.1115 9.77214 62.3017 9.49834 62.5575 9.29556C62.8133 9.09277 63.1232 8.97001 63.4485 8.94268L69.6086 8.40913L72.0131 2.67383C72.1387 2.37288 72.3505 2.11582 72.6219 1.93501C72.8932 1.7542 73.212 1.65771 73.5381 1.65771C73.8642 1.65771 74.183 1.7542 74.4544 1.93501C74.7257 2.11582 74.9375 2.37288 75.0631 2.67383L77.4749 8.40913L83.6329 8.94268C83.9582 8.97001 84.2682 9.09277 84.5239 9.29556C84.7797 9.49834 84.9699 9.77214 85.0707 10.0826C85.1715 10.3931 85.1784 10.7264 85.0905 11.0407C85.0026 11.3551 84.8239 11.6365 84.5767 11.8497H84.5715Z" fill="#FFAA2A"/>
</g>
<g clip-path="url(#clip3_13_170)">
<path d="M114.709 11.8497L110.037 15.9274L111.437 21.9984C111.511 22.3158 111.489 22.6479 111.376 22.9533C111.262 23.2588 111.061 23.5239 110.797 23.7156C110.534 23.9073 110.22 24.0171 109.894 24.0311C109.568 24.0452 109.246 23.963 108.967 23.7948L103.672 20.5832L98.3881 23.7948C98.1089 23.963 97.7864 24.0452 97.4608 24.0311C97.1352 24.0171 96.821 23.9073 96.5574 23.7156C96.2939 23.5239 96.0927 23.2588 95.979 22.9533C95.8653 22.6479 95.8442 22.3158 95.9182 21.9984L97.3158 15.9336L92.6424 11.8497C92.3952 11.6365 92.2165 11.3551 92.1286 11.0407C92.0407 10.7264 92.0476 10.3931 92.1484 10.0826C92.2492 9.77214 92.4394 9.49834 92.6952 9.29556C92.951 9.09277 93.2609 8.97001 93.5862 8.94268L99.7463 8.40913L102.151 2.67383C102.276 2.37288 102.488 2.11582 102.76 1.93501C103.031 1.7542 103.35 1.65771 103.676 1.65771C104.002 1.65771 104.321 1.7542 104.592 1.93501C104.863 2.11582 105.075 2.37288 105.201 2.67383L107.613 8.40913L113.771 8.94268C114.096 8.97001 114.406 9.09277 114.662 9.29556C114.917 9.49834 115.108 9.77214 115.208 10.0826C115.309 10.3931 115.316 10.7264 115.228 11.0407C115.14 11.3551 114.962 11.6365 114.714 11.8497H114.709Z" fill="#FFAA2A"/>
</g>
<g clip-path="url(#clip4_13_170)">
<path d="M144.848 11.8497L140.176 15.9274L141.575 21.9984C141.649 22.3158 141.628 22.6479 141.514 22.9533C141.401 23.2588 141.2 23.5239 140.936 23.7156C140.672 23.9073 140.358 24.0171 140.033 24.0311C139.707 24.0452 139.384 23.963 139.105 23.7948L133.81 20.5832L128.527 23.7948C128.248 23.963 127.925 24.0452 127.599 24.0311C127.274 24.0171 126.96 23.9073 126.696 23.7156C126.433 23.5239 126.231 23.2588 126.118 22.9533C126.004 22.6479 125.983 22.3158 126.057 21.9984L127.454 15.9336L122.781 11.8497C122.534 11.6365 122.355 11.3551 122.267 11.0407C122.179 10.7264 122.186 10.3931 122.287 10.0826C122.388 9.77214 122.578 9.49834 122.834 9.29556C123.09 9.09277 123.4 8.97001 123.725 8.94268L129.885 8.40913L132.289 2.67383C132.415 2.37288 132.627 2.11582 132.898 1.93501C133.17 1.7542 133.488 1.65771 133.814 1.65771C134.141 1.65771 134.459 1.7542 134.731 1.93501C135.002 2.11582 135.214 2.37288 135.339 2.67383L137.751 8.40913L143.909 8.94268C144.235 8.97001 144.545 9.09277 144.8 9.29556C145.056 9.49834 145.246 9.77214 145.347 10.0826C145.448 10.3931 145.455 10.7264 145.367 11.0407C145.279 11.3551 145.1 11.6365 144.853 11.8497H144.848Z" fill="#FFAA2A"/>
</g>
<defs>
<clipPath id="clip0_13_170">
<rect width="26.5217" height="26.5217" fill="white"/>
</clipPath>
<clipPath id="clip1_13_170">
<rect width="26.5217" height="26.5217" fill="white" transform="translate(30.1377)"/>
</clipPath>
<clipPath id="clip2_13_170">
<rect width="26.5217" height="26.5217" fill="white" transform="translate(60.2773)"/>
</clipPath>
<clipPath id="clip3_13_170">
<rect width="26.5217" height="26.5217" fill="white" transform="translate(90.415)"/>
</clipPath>
<clipPath id="clip4_13_170">
<rect width="26.5217" height="26.5217" fill="white" transform="translate(120.554)"/>
</clipPath>
</defs>
</svg>
