<svg width="96" height="94" viewBox="0 0 96 94" fill="none" xmlns="http://www.w3.org/2000/svg">
<g clip-path="url(#clip0_13_365)">
<path d="M37.5084 82.0316C41.982 83.5805 46.2218 82.5054 49.344 78.4234C50.9277 76.4288 51.2282 75.377 55.9556 65.5319C56.6052 65.911 57.5838 66.2498 58.5624 66.5886C63.3608 68.3269 69.1211 71.3229 74.7673 70.2724C80.6027 69.1333 84.8725 63.8304 84.1422 57.567C84.1631 56.4184 84.0893 55.314 83.8758 54.1613C83.3215 51.1182 81.0235 48.5503 77.9027 47.3928C74.2227 46.0417 70.4481 44.7349 66.4886 43.2869C67.5131 41.0987 68.6321 38.8662 69.6566 36.6779C71.2654 33.3049 72.8825 29.4724 71.5387 26.0019C68.3212 17.2592 53.7696 12.9148 49.0547 22.0706C47.0057 26.4471 44.8169 30.7751 42.6733 35.1959C38.6191 33.7923 34.3758 32.4773 29.713 31.0171C17.8711 27.2256 10.7275 46.1746 20.5621 52.0453C23.9333 54.9078 31.4908 57.0619 31.9595 57.0701C30.3508 60.4431 28.7873 63.9088 27.1785 67.2819C24.0021 74.3503 30.074 80.8448 37.5084 82.0316ZM77.4541 48.8557C80.0157 49.8196 81.9478 51.8756 82.3707 54.4108C83.3604 59.2999 81.6363 63.8659 76.9394 66.8633C74.8995 68.1606 72.2676 68.4823 70.0308 67.7079C65.6971 66.2075 61.3633 64.7071 57.0295 63.2067C59.9549 57.053 62.9748 50.8551 65.9001 44.7015C69.8597 46.1494 73.6795 47.5489 77.4541 48.8557ZM22.9637 51.4898C12.524 47.9525 18.4011 29.0273 29.2644 32.4801C33.7874 33.8918 37.9361 35.2511 41.9903 36.6547C38.9745 42.623 36.004 48.6839 33.0293 54.9746C29.6741 53.813 26.3189 52.6514 22.9637 51.4898ZM28.667 67.9513C35.8426 52.4039 43.2937 37.1831 50.5883 22.8327C53.892 16.5019 64.859 16.8311 69.1044 25.7756C70.0538 27.7225 70.0121 30.0198 68.9423 32.1154C61.878 46.6995 54.3858 61.5979 47.2269 76.2264C42.5488 85.9343 23.9806 78.1187 28.667 67.9513Z" fill="#01CC83"/>
<path d="M46.8574 60.4553C49.2751 61.6005 52.0634 60.4083 53.0427 58.1273C54.561 54.5689 55.927 51.6512 57.437 48.5522C58.5108 46.227 57.5288 43.4982 55.2016 42.5383L50.1771 40.3365C47.9445 39.3323 45.1604 40.2949 44.1811 42.5758C42.6217 45.8118 41.1118 48.9108 39.4168 51.8687C38.1085 54.1898 39.0864 57.1484 41.5534 58.1566C43.3214 58.9228 45.0894 59.6891 46.8574 60.4553ZM40.6708 52.534C42.3658 49.5761 43.9703 46.4329 45.5297 43.1969C46.2127 41.738 48.0057 41.1259 49.4489 41.7026L54.4734 43.9045C55.9618 44.5739 56.7261 46.3797 55.9486 47.8828C54.5332 50.9375 53.1178 53.9922 51.5543 57.4579C50.9165 59.0094 49.0741 59.7586 47.5404 58.9965C45.7272 58.1375 43.9592 57.3713 42.0514 56.5567C40.3738 55.9759 39.7986 54.0815 40.6708 52.534Z" fill="#01CC83"/>
<path d="M52.4155 33.2517C52.8349 33.3969 53.3079 33.1753 53.456 32.7643C53.6042 32.3532 53.3781 31.8897 52.9587 31.7445L52.8189 31.6961C52.3995 31.5509 51.9266 31.7724 51.7784 32.1835C51.6303 32.5945 51.8563 33.0581 52.2757 33.2033L52.4155 33.2517Z" fill="#01CC83"/>
<path d="M60.0148 35.7283L60.0642 35.5913C60.2123 35.1803 60.1261 34.7651 59.6615 34.5272C59.1969 34.2893 58.8185 34.4665 58.5758 34.9219L58.4318 35.1032C58.2837 35.5143 58.4645 35.8851 58.8345 36.1674C59.3937 36.361 59.7721 36.1837 60.0148 35.7283Z" fill="#01CC83"/>
<path d="M55.0497 25.0707L55.2882 24.8451C55.5762 24.4824 55.4899 24.0673 55.1199 23.7851C54.7499 23.5028 54.3263 23.5874 54.0384 23.95L53.7998 24.1757C53.5119 24.5383 53.5981 24.9535 53.9681 25.2357C54.3382 25.5179 54.8563 25.3891 55.0497 25.0707Z" fill="#01CC83"/>
<path d="M61.9378 25.3748C62.3161 25.1975 62.5137 24.6495 62.3328 24.2786C62.152 23.9078 61.6874 23.6699 61.2144 23.8914C60.7415 24.113 60.7331 24.5724 60.8688 24.8506C61.0002 25.3584 61.4648 25.5963 61.9378 25.3748Z" fill="#01CC83"/>
<path d="M63.8934 31.2918C64.2634 31.5741 64.687 31.4895 64.9749 31.1269C65.2629 30.7642 65.1766 30.3491 64.8066 30.0668L64.5764 29.833C64.2064 29.5508 63.7828 29.6353 63.4949 29.998C63.2069 30.3607 63.2932 30.7758 63.6632 31.058L63.8934 31.2918Z" fill="#01CC83"/>
<path d="M56.8624 28.5493C56.7143 28.9604 56.9403 29.4239 57.3597 29.5691L57.4995 29.6175C57.9189 29.7627 58.3918 29.5412 58.54 29.1301C58.6881 28.7191 58.4621 28.2555 58.0427 28.1103L57.9029 28.0619C57.4835 27.9167 57.0105 28.1383 56.8624 28.5493Z" fill="#01CC83"/>
<path d="M32.2479 72.1962C32.6263 72.019 32.869 71.5636 32.643 71.1L32.5978 71.0073C32.4169 70.6365 31.9523 70.3986 31.4794 70.6201C31.0064 70.8417 30.8583 71.2527 31.0843 71.7163L31.1295 71.809C31.3556 72.2726 31.8696 72.3734 32.2479 72.1962Z" fill="#01CC83"/>
<path d="M36.5647 77.2353C37.2269 76.9251 37.1038 75.9578 36.4048 75.7158C36.0306 75.6633 35.5576 75.8848 35.3643 76.2032C35.212 76.844 35.7134 77.6341 36.5647 77.2353Z" fill="#01CC83"/>
<path d="M45.2873 74.6298C45.633 73.6706 43.9554 73.0898 43.6097 74.049C43.3092 75.1008 44.9868 75.6816 45.2873 74.6298Z" fill="#01CC83"/>
<path d="M45.0261 65.7548L44.9315 65.7991C44.5532 65.9763 44.3104 66.4317 44.5365 66.8952C44.7625 67.3588 45.1819 67.504 45.6549 67.2824L45.7495 67.2381C46.1278 67.0609 46.3706 66.6055 46.1445 66.142C45.9185 65.6784 45.4045 65.5775 45.0261 65.7548Z" fill="#01CC83"/>
<path d="M33.7832 65.099C33.6023 64.7282 33.1377 64.4903 32.6648 64.7118L32.5702 64.7561C32.1918 64.9334 31.9491 65.3887 32.1751 65.8523C32.7218 66.7351 34.2353 66.0261 33.7832 65.099Z" fill="#01CC83"/>
<path d="M39.6053 69.8886C39.9837 69.7113 40.2264 69.256 40.0004 68.7924L39.9552 68.6997C39.7744 68.3289 39.3098 68.091 38.8368 68.3125C38.3638 68.5341 38.2157 68.9451 38.4417 69.4087L38.487 69.5014C38.7624 69.8279 39.227 70.0658 39.6053 69.8886Z" fill="#01CC83"/>
<path d="M24.1377 46.2707C23.8623 45.9442 23.2989 45.9803 23.0603 46.2059C22.7272 46.4759 22.764 47.0281 22.9943 47.2619L23.2697 47.5884C23.5451 47.9149 24.0139 47.9231 24.4416 47.6089C24.7748 47.3389 24.7379 46.7867 24.4625 46.4602L24.1377 46.2707Z" fill="#01CC83"/>
<path d="M20.9889 41.4818C21.9348 41.0387 21.2114 39.5553 20.2655 39.9984C19.8872 40.1757 19.6444 40.631 19.8705 41.0946L19.9157 41.1873C20.0513 41.4654 20.6105 41.659 20.9889 41.4818Z" fill="#01CC83"/>
<path d="M26.209 35.5061C26.0281 35.1353 25.5635 34.8974 25.0906 35.1189L24.996 35.1632C24.6176 35.3405 24.3749 35.7958 24.6009 36.2594C25.053 37.1865 26.6611 36.4332 26.209 35.5061Z" fill="#01CC83"/>
<path d="M35.139 39.5226C35.5174 39.3453 35.5709 38.9786 35.6203 38.8416C35.7685 38.4305 35.5424 37.9669 35.123 37.8217C34.7036 37.6765 34.2307 37.8981 34.0825 38.3092L34.0332 38.4462C33.8315 39.224 34.4769 39.8327 35.139 39.5226Z" fill="#01CC83"/>
<path d="M29.7465 47.2877C30.1249 47.1105 30.3676 46.6551 30.1416 46.1916C29.6895 45.2645 28.176 45.9734 28.6281 46.9005C28.809 47.2714 29.2736 47.5093 29.7465 47.2877Z" fill="#01CC83"/>
<path d="M27.7988 40.9113L27.8482 40.7742C27.9963 40.3632 27.7703 39.8996 27.3509 39.7544C26.9315 39.6092 26.4585 39.8308 26.3104 40.2418L26.2116 40.5159C26.0635 40.9269 26.2895 41.3905 26.7089 41.5357C27.1777 41.5439 27.6506 41.3223 27.7988 40.9113Z" fill="#01CC83"/>
<path d="M64.3632 59.6577C63.9848 59.835 63.7421 60.2903 63.9681 60.7539L64.0133 60.8466C64.1942 61.2174 64.6588 61.4553 65.1317 61.2338C65.6047 61.0122 65.7528 60.6012 65.5268 60.1376L65.4816 60.0449C65.2061 59.7184 64.7415 59.4805 64.3632 59.6577Z" fill="#01CC83"/>
<path d="M76.7688 60.7935C77.4309 60.4833 77.353 59.6087 76.654 59.3667L76.5142 59.3183C76.0948 59.1731 75.6219 59.3946 75.4737 59.8057C75.3256 60.2167 75.5516 60.6803 75.971 60.8255C76.2506 60.9223 76.485 60.9264 76.7688 60.7935Z" fill="#01CC83"/>
<path d="M76.9807 54.3166C77.6428 54.0065 77.5649 53.1319 76.8659 52.8899L76.7261 52.8415C76.3067 52.6963 75.8338 52.9178 75.6856 53.3289C75.5375 53.7399 75.7635 54.2035 76.1829 54.3487C76.5571 54.4012 76.6969 54.4496 76.9807 54.3166Z" fill="#01CC83"/>
<path d="M68.5754 52.3317C69.2376 52.0215 69.1597 51.1469 68.4607 50.9049L68.3209 50.8565C67.9015 50.7113 67.4285 50.9328 67.2804 51.3439C67.1322 51.7549 67.3583 52.2185 67.7777 52.3637C68.1066 52.3235 68.2917 52.4646 68.5754 52.3317Z" fill="#01CC83"/>
<path d="M69.3803 57.0795C68.4344 57.5226 69.1578 59.006 70.1037 58.5629C70.482 58.3857 70.7248 57.9303 70.4987 57.4667L70.4535 57.374C70.1781 57.0475 69.7587 56.9023 69.3803 57.0795Z" fill="#01CC83"/>
<path d="M70.6082 64.3628C70.3161 64.9552 70.8628 65.838 71.8087 65.3949C72.4708 65.0848 72.3477 64.1174 71.6487 63.8754C71.18 63.8673 70.707 64.0888 70.6082 64.3628Z" fill="#01CC83"/>
<path d="M38.0859 14.1118C37.7527 14.3817 37.6498 14.8855 37.9252 15.212C39.6146 17.7234 41.5426 20.0091 43.7544 22.1619C44.0298 22.4884 44.5931 22.4523 44.8811 22.0896C45.2142 21.8197 45.1774 21.2675 44.8074 20.9853C42.6408 18.9252 40.7581 16.7322 39.1139 14.3136C38.933 13.9427 38.4642 13.9345 38.0859 14.1118Z" fill="#01CC83"/>
<path d="M45.1556 12.1669L46.918 18.4023C47.0043 18.8175 47.4689 19.0554 47.8924 18.9709C48.316 18.8863 48.5587 18.431 48.4725 18.0158L46.6648 11.6877C46.5786 11.2725 46.114 11.0346 45.6904 11.1191C45.3121 11.2964 45.0693 11.7517 45.1556 12.1669Z" fill="#01CC83"/>
<path d="M52.0935 9.71416C51.9203 11.5036 51.8869 13.3415 52.0879 15.1834C52.1248 15.7356 52.5442 15.8808 52.9677 15.7962C53.3913 15.7117 53.7244 15.4418 53.6876 14.8896C53.4372 13.1847 53.5158 11.4395 53.6396 9.78711C53.6479 9.32764 53.3725 9.00111 52.9983 8.94862C52.4802 9.07746 52.147 9.34741 52.0935 9.71416Z" fill="#01CC83"/>
</g>
<defs>
<clipPath id="clip0_13_365">
<rect width="71.0291" height="70.139" fill="white" transform="matrix(0.905566 -0.424204 0.4383 0.898829 0 30.1309)"/>
</clipPath>
</defs>
</svg>
