<svg width="90" height="90" viewBox="0 0 90 90" fill="none" xmlns="http://www.w3.org/2000/svg">
<g filter="url(#filter0_d_13_741)">
<circle cx="45" cy="36" r="36" fill="url(#paint0_linear_13_741)"/>
</g>
<g clip-path="url(#clip0_13_741)">
<path d="M62.7402 42.8859L58.3598 25.6093C58.2446 25.1595 58.0006 24.7531 57.6579 24.4399C57.3151 24.1267 56.8885 23.9202 56.4302 23.8458L51.0775 22.9671C50.4874 22.8722 49.8831 23.0001 49.3822 23.3261C48.8812 23.652 48.5194 24.1526 48.367 24.7305L48.3359 24.8567C48.3157 24.9369 48.3125 25.0203 48.3264 25.1018C48.3403 25.1833 48.3712 25.261 48.4168 25.3299C48.4625 25.3987 48.5221 25.4573 48.5917 25.5019C48.6614 25.5464 48.7396 25.5759 48.8213 25.5885C50.0495 25.7687 51.2612 26.0477 52.4446 26.4227C52.7405 26.512 52.9913 26.7104 53.1462 26.9778C53.3011 27.2452 53.3485 27.5615 53.2788 27.8625C53.2388 28.0194 53.1671 28.1665 53.0681 28.2946C52.9691 28.4228 52.845 28.5293 52.7033 28.6077C52.5616 28.6861 52.4054 28.7348 52.2443 28.7506C52.0831 28.7664 51.9205 28.7491 51.7663 28.6997C47.3752 27.3531 42.6821 27.3479 38.2881 28.6849C37.9908 28.7849 37.6663 28.7665 37.3822 28.6335C37.098 28.5006 36.876 28.2633 36.7622 27.9709C36.7081 27.8209 36.6848 27.6615 36.6936 27.5023C36.7025 27.3431 36.7433 27.1873 36.8137 27.0441C36.8841 26.901 36.9826 26.7736 37.1033 26.6694C37.224 26.5651 37.3644 26.4863 37.5163 26.4376C38.7144 26.0559 39.9416 25.772 41.1856 25.5885C41.2673 25.5759 41.3455 25.5464 41.4151 25.5019C41.4848 25.4573 41.5443 25.3987 41.59 25.3299C41.6357 25.261 41.6665 25.1833 41.6805 25.1018C41.6944 25.0203 41.6912 24.9369 41.671 24.8567L41.6398 24.7305C41.4875 24.1521 41.1251 23.6512 40.6235 23.3254C40.1218 22.9997 39.5168 22.8724 38.9264 22.9686L33.5708 23.8473C33.1127 23.9216 32.6861 24.1278 32.3434 24.4408C32.0007 24.7537 31.7566 25.1598 31.6411 25.6093L27.2607 42.8859C27.1234 43.429 27.1831 44.0031 27.4294 44.5063C27.6757 45.0094 28.0924 45.4088 28.6055 45.6335L38.5509 50.0436C38.8499 50.1765 39.173 50.2469 39.5002 50.2504C39.8275 50.2539 40.152 50.1905 40.4538 50.0639C40.7556 49.9374 41.0284 49.7505 41.2553 49.5147C41.4822 49.2789 41.6586 48.9992 41.7734 48.6928L42.2915 47.29C42.3224 47.206 42.3338 47.1161 42.325 47.027C42.3163 46.938 42.2875 46.852 42.2408 46.7756C42.1941 46.6993 42.1307 46.6344 42.0555 46.586C41.9802 46.5375 41.8949 46.5068 41.8061 46.4959C40.3641 46.3213 38.9414 46.0132 37.5563 45.5756C37.2617 45.4861 37.012 45.2882 36.8574 45.0218C36.7029 44.7554 36.6551 44.4404 36.7236 44.1402C36.7633 43.9829 36.8348 43.8354 36.9338 43.7068C37.0327 43.5782 37.1569 43.4712 37.2988 43.3925C37.4407 43.3137 37.5972 43.2649 37.7587 43.249C37.9201 43.2331 38.0832 43.2505 38.2377 43.3C42.6452 44.6498 47.3558 44.6498 51.7633 43.3C51.9176 43.2507 52.0804 43.2335 52.2416 43.2494C52.4028 43.2653 52.5591 43.314 52.7008 43.3926C52.8424 43.4712 52.9666 43.5779 53.0655 43.7062C53.1644 43.8345 53.236 43.9817 53.2759 44.1387C53.3452 44.4392 53.2977 44.7547 53.1431 45.0215C52.9885 45.2883 52.7383 45.4863 52.4431 45.5756C51.0586 46.0133 49.6364 46.3214 48.1948 46.4959C48.106 46.5068 48.0207 46.5375 47.9455 46.586C47.8702 46.6344 47.8069 46.6993 47.7602 46.7756C47.7135 46.852 47.6847 46.938 47.6759 47.027C47.6671 47.1161 47.6786 47.206 47.7095 47.29L48.2275 48.6928C48.3426 48.9991 48.519 49.2787 48.7459 49.5143C48.9729 49.75 49.2457 49.9368 49.5474 50.0633C49.8492 50.1898 50.1736 50.2533 50.5008 50.2499C50.828 50.2465 51.151 50.1763 51.4501 50.0436L61.3954 45.6335C61.9085 45.4088 62.3253 45.0094 62.5715 44.5063C62.8178 44.0031 62.8776 43.429 62.7402 42.8859ZM39.6567 39.5624C39.3044 39.5624 38.96 39.4579 38.6671 39.2622C38.3742 39.0665 38.1459 38.7883 38.0111 38.4628C37.8762 38.1373 37.841 37.7792 37.9097 37.4336C37.9784 37.0881 38.1481 36.7707 38.3972 36.5216C38.6463 36.2725 38.9637 36.1028 39.3092 36.0341C39.6547 35.9654 40.0129 36.0007 40.3384 36.1355C40.6639 36.2703 40.9421 36.4986 41.1378 36.7915C41.3335 37.0845 41.438 37.4288 41.438 37.7811C41.438 38.2536 41.2503 38.7066 40.9163 39.0407C40.5822 39.3747 40.1291 39.5624 39.6567 39.5624ZM50.3442 39.5624C49.9919 39.5624 49.6475 39.4579 49.3546 39.2622C49.0617 39.0665 48.8334 38.7883 48.6986 38.4628C48.5637 38.1373 48.5285 37.7792 48.5972 37.4336C48.6659 37.0881 48.8356 36.7707 49.0847 36.5216C49.3338 36.2725 49.6512 36.1028 49.9967 36.0341C50.3422 35.9654 50.7004 36.0007 51.0259 36.1355C51.3514 36.2703 51.6295 36.4986 51.8253 36.7915C52.021 37.0845 52.1255 37.4288 52.1255 37.7811C52.1255 38.2536 51.9378 38.7066 51.6038 39.0407C51.2697 39.3747 50.8166 39.5624 50.3442 39.5624Z" fill="white"/>
</g>
<defs>
<filter id="filter0_d_13_741" x="0" y="0" width="90" height="90" filterUnits="userSpaceOnUse" color-interpolation-filters="sRGB">
<feFlood flood-opacity="0" result="BackgroundImageFix"/>
<feColorMatrix in="SourceAlpha" type="matrix" values="0 0 0 0 0 0 0 0 0 0 0 0 0 0 0 0 0 0 127 0" result="hardAlpha"/>
<feOffset dy="9"/>
<feGaussianBlur stdDeviation="4.5"/>
<feComposite in2="hardAlpha" operator="out"/>
<feColorMatrix type="matrix" values="0 0 0 0 0 0 0 0 0 0 0 0 0 0 0 0 0 0 0.14 0"/>
<feBlend mode="normal" in2="BackgroundImageFix" result="effect1_dropShadow_13_741"/>
<feBlend mode="normal" in="SourceGraphic" in2="effect1_dropShadow_13_741" result="shape"/>
</filter>
<linearGradient id="paint0_linear_13_741" x1="29.5" y1="9" x2="64.5" y2="63.5" gradientUnits="userSpaceOnUse">
<stop stop-color="#F98A17"/>
<stop offset="1" stop-color="#FFAD58"/>
</linearGradient>
<clipPath id="clip0_13_741">
<rect width="38" height="38" fill="white" transform="translate(26 17)"/>
</clipPath>
</defs>
</svg>
