<svg width="62" height="62" viewBox="0 0 62 62" fill="none" xmlns="http://www.w3.org/2000/svg">
<path d="M19.4662 19.0185H42.5321C43.495 19.0185 44.2758 18.2377 44.2758 17.2748C44.2758 16.3118 43.495 15.531 42.5321 15.531H19.4662C18.5032 15.531 17.7224 16.3118 17.7224 17.2748C17.7224 18.2377 18.5032 19.0185 19.4662 19.0185Z" fill="#FF9B25"/>
<path d="M38.1184 23.0293H23.8817C22.9188 23.0293 22.1379 23.8101 22.1379 24.773C22.1379 25.736 22.9188 26.5168 23.8817 26.5168H38.1184C39.0814 26.5168 39.8622 25.736 39.8622 24.773C39.8622 23.8101 39.0814 23.0293 38.1184 23.0293Z" fill="#FF9B25"/>
<path d="M48.4841 48.2361C52.6497 48.2361 56.0403 44.8455 56.0403 40.6798V9.6876C56.0403 5.52197 52.6497 2.13135 48.4841 2.13135H13.5199C9.35043 2.13135 5.9598 5.52197 5.9598 9.69147V52.1963C5.8978 56.3542 9.36012 59.8688 13.5238 59.8688H16.0619C17.0249 59.8688 17.8057 59.088 17.8057 58.1251C17.8057 57.1622 17.0249 56.3813 16.0619 56.3813H13.5238C11.2841 56.3813 9.46087 54.5678 9.43955 52.3339C9.43955 52.3242 9.44537 52.3165 9.44537 52.3068C9.44537 51.2334 9.87549 50.1872 10.6272 49.4373C11.41 48.6546 12.4097 48.24 13.5161 48.24H21.1033V57.7085C21.1033 58.4312 21.4986 59.0958 22.1341 59.4407C22.7696 59.7855 23.5426 59.7565 24.1568 59.3554L28.7409 56.3407L33.3328 59.3612C33.6583 59.5724 34.0322 59.679 34.4081 59.679C34.7297 59.679 35.0533 59.5995 35.3478 59.4407C35.9833 59.0958 36.3786 58.4312 36.3786 57.7085V48.24H48.4841V48.2361ZM9.44537 9.69147C9.44537 7.44591 11.2724 5.61691 13.5199 5.61691H48.486C50.7296 5.61691 52.5547 7.44204 52.5547 9.68566V40.6779C52.5547 42.9215 50.7316 44.7467 48.486 44.7467H13.5606C12.1579 44.6963 10.6195 45.1807 9.44537 45.9324V9.69147ZM32.8891 54.8914L29.9054 52.9287C29.1982 52.4637 28.2817 52.4637 27.5726 52.9287L24.5889 54.8914V48.2361H32.8891V54.8914Z" fill="#234DCA"/>
<path d="M54.3082 50.5688C53.3452 50.5688 52.5644 51.3497 52.5644 52.3126C52.5644 54.5562 50.7412 56.3813 48.4957 56.3813H41.4238C40.4609 56.3813 39.6801 57.1622 39.6801 58.1251C39.6801 59.088 40.4609 59.8688 41.4238 59.8688H48.4957C52.6613 59.8688 56.0519 56.4782 56.0519 52.3126C56.0539 51.3497 55.2711 50.5688 54.3082 50.5688Z" fill="#234DCA"/>
</svg>
