<svg width="30" height="42" viewBox="0 0 30 42" fill="none" xmlns="http://www.w3.org/2000/svg">
<circle cx="1" cy="1" r="1" fill="#234DCA"/>
<circle cx="1" cy="9" r="1" fill="#234DCA"/>
<circle cx="1" cy="17" r="1" fill="#234DCA"/>
<circle cx="1" cy="25" r="1" fill="#234DCA"/>
<circle cx="1" cy="33" r="1" fill="#234DCA"/>
<circle cx="1" cy="41" r="1" fill="#234DCA"/>
<circle cx="8" cy="1" r="1" fill="#234DCA"/>
<circle cx="8" cy="9" r="1" fill="#234DCA"/>
<circle cx="8" cy="17" r="1" fill="#234DCA"/>
<circle cx="8" cy="25" r="1" fill="#234DCA"/>
<circle cx="8" cy="33" r="1" fill="#234DCA"/>
<circle cx="8" cy="41" r="1" fill="#234DCA"/>
<circle cx="15" cy="1" r="1" fill="#234DCA"/>
<circle cx="15" cy="9" r="1" fill="#234DCA"/>
<circle cx="15" cy="17" r="1" fill="#234DCA"/>
<circle cx="15" cy="25" r="1" fill="#234DCA"/>
<circle cx="15" cy="33" r="1" fill="#234DCA"/>
<circle cx="15" cy="41" r="1" fill="#234DCA"/>
<circle cx="22" cy="1" r="1" fill="#234DCA"/>
<circle cx="22" cy="9" r="1" fill="#234DCA"/>
<circle cx="22" cy="17" r="1" fill="#234DCA"/>
<circle cx="22" cy="25" r="1" fill="#234DCA"/>
<circle cx="22" cy="33" r="1" fill="#234DCA"/>
<circle cx="22" cy="41" r="1" fill="#234DCA"/>
<circle cx="29" cy="1" r="1" fill="#234DCA"/>
<circle cx="29" cy="9" r="1" fill="#234DCA"/>
<circle cx="29" cy="17" r="1" fill="#234DCA"/>
<circle cx="29" cy="25" r="1" fill="#234DCA"/>
<circle cx="29" cy="33" r="1" fill="#234DCA"/>
<circle cx="29" cy="41" r="1" fill="#234DCA"/>
</svg>
