<svg width="70" height="70" viewBox="0 0 70 70" fill="none" xmlns="http://www.w3.org/2000/svg">
<g clip-path="url(#clip0_13_109)">
<path d="M64.1667 4.6665H5.83333C2.61327 4.67036 0.00385714 7.27978 0 10.4998V52.4998C0.00385714 55.7199 2.61327 58.3293 5.83333 58.3332H40.8333V64.1665C40.8334 64.6383 41.1177 65.0636 41.5536 65.2441C41.9895 65.4247 42.4912 65.3249 42.8248 64.9913L46.6667 61.1495L50.5085 64.9913C50.8422 65.3249 51.3439 65.4247 51.7798 65.2441C52.2157 65.0636 52.4999 64.6383 52.5 64.1665V58.3332H64.1667C67.3867 58.3293 69.9961 55.7199 70 52.4998V10.4998C69.9961 7.27978 67.3867 4.67036 64.1667 4.6665ZM37.695 27.4923C37.5147 27.4092 37.385 27.2447 37.3463 27.0499C37.3075 26.8551 37.3643 26.6536 37.499 26.5077C38.5429 25.3731 38.5429 23.6277 37.499 22.4932C37.3638 22.3471 37.3069 22.1451 37.346 21.9499C37.385 21.7548 37.5152 21.5902 37.6962 21.5073C39.0937 20.857 39.7608 19.2451 39.2315 17.7973C39.1626 17.6109 39.1871 17.4028 39.2975 17.2376C39.4078 17.0723 39.5906 16.9699 39.7892 16.962C41.3299 16.8973 42.5641 15.663 42.6288 14.1223C42.6366 13.9235 42.7392 13.7404 42.9047 13.63C43.0703 13.5196 43.2788 13.4953 43.4653 13.5647C44.9133 14.0908 46.5233 13.424 47.1753 12.0282C47.2578 11.8475 47.4221 11.7174 47.617 11.6786C47.8118 11.6398 48.0134 11.6969 48.1588 11.8322C49.2938 12.8762 51.0395 12.8762 52.1745 11.8322C52.3204 11.697 52.5222 11.6401 52.7172 11.6791C52.9122 11.7182 53.0766 11.8484 53.1592 12.0293C53.8099 13.4258 55.4206 14.0926 56.868 13.5647C57.0545 13.4953 57.263 13.5196 57.4286 13.63C57.5942 13.7404 57.6968 13.9235 57.7045 14.1223C57.77 15.6652 59.0071 16.9002 60.55 16.9632C60.7485 16.9706 60.9313 17.0728 61.0417 17.2379C61.1521 17.403 61.1766 17.6111 61.1077 17.7973C60.578 19.2454 61.2458 20.8578 62.6442 21.5073C62.8245 21.5905 62.9541 21.755 62.9929 21.9498C63.0317 22.1445 62.9749 22.3461 62.8402 22.492C61.7962 23.6266 61.7962 25.3719 62.8402 26.5065C62.9753 26.6526 63.0322 26.8546 62.9932 27.0497C62.9542 27.2449 62.8239 27.4095 62.643 27.4923C61.2455 28.1427 60.5784 29.7546 61.1077 31.2023C61.1765 31.3887 61.152 31.5968 61.0417 31.7621C60.9314 31.9274 60.7486 32.0298 60.55 32.0377C59.0049 32.0997 57.7665 33.3381 57.7045 34.8832C57.6968 35.082 57.5942 35.2651 57.4286 35.3755C57.263 35.4859 57.0545 35.5102 56.868 35.4408C55.42 34.9141 53.8096 35.5811 53.158 36.9773C53.0785 37.1597 52.9138 37.2909 52.7182 37.3273C52.5229 37.3682 52.3199 37.3111 52.1745 37.1745C51.0393 36.131 49.294 36.131 48.1588 37.1745C48.0133 37.3109 47.8105 37.368 47.6152 37.3273C47.4193 37.2908 47.2542 37.1598 47.1742 36.9773C46.5239 35.5804 44.9127 34.9134 43.4653 35.442C43.2788 35.5114 43.0703 35.4871 42.9047 35.3767C42.7392 35.2663 42.6366 35.0832 42.6288 34.8843C42.5669 33.3388 41.3288 32.0997 39.7833 32.0365C39.5849 32.029 39.402 31.9269 39.2916 31.7617C39.1812 31.5966 39.1567 31.3886 39.2257 31.2023C39.7562 29.7558 39.0912 28.144 37.695 27.4923ZM50.5097 49.3405L50.1667 49.6835V38.7168C50.3228 38.7164 50.4733 38.7752 50.5878 38.8813C51.1285 39.3881 51.8418 39.6701 52.5828 39.67C52.781 39.6696 52.9787 39.6501 53.1732 39.6117C54.1015 39.4304 54.8843 38.8103 55.2732 37.948C55.4098 37.6539 55.7493 37.5138 56.0537 37.626C56.4087 37.7518 56.7845 37.8084 57.1608 37.7928V49.6835L54.4857 47.0083C54.0301 46.5529 53.2916 46.5529 52.836 47.0083L50.5097 49.3405ZM50.1667 61.3502L47.4915 58.675C47.0359 58.2196 46.2974 58.2196 45.8418 58.675L43.1667 61.3502V37.7905C43.543 37.8062 43.9188 37.7495 44.2738 37.6237C44.5775 37.5108 44.9169 37.6505 45.0532 37.9445C45.4431 38.809 46.2289 39.4299 47.1602 39.6093C47.3818 39.6532 47.6075 39.6724 47.8333 39.6665V52.4998C47.8334 52.9716 48.1177 53.3969 48.5536 53.5775C48.9895 53.758 49.4912 53.6582 49.8248 53.3247L50.1667 52.9828V61.3502ZM67.6667 52.4998C67.6667 54.4328 66.0997 55.9998 64.1667 55.9998H52.5V50.6495L53.6667 49.4828L57.5085 53.3247C57.8422 53.6582 58.3439 53.758 58.7798 53.5775C59.2157 53.3969 59.4999 52.9716 59.5 52.4998V36.5247C59.8256 36.0675 60.0116 35.5256 60.0355 34.9648C60.0497 34.6412 60.3092 34.3823 60.6328 34.3687C61.5786 34.3322 62.4497 33.8447 62.9754 33.0576C63.5012 32.2705 63.6179 31.2792 63.2893 30.3915C63.178 30.0878 63.318 29.7495 63.6113 29.6133C64.4718 29.218 65.0906 28.4341 65.2754 27.5053C65.4601 26.5766 65.1884 25.6155 64.5447 24.921C64.3254 24.6826 64.3254 24.3159 64.5447 24.0775C65.1884 23.3832 65.4602 22.4223 65.2754 21.4937C65.0907 20.5651 64.4718 19.7814 63.6113 19.3863C63.3171 19.251 63.1763 18.9121 63.2882 18.6082C63.6167 17.7205 63.5 16.7292 62.9743 15.9421C62.4485 15.155 61.5775 14.6675 60.6317 14.631C60.308 14.6174 60.0486 14.3585 60.0343 14.0348C59.999 13.0887 59.512 12.2169 58.725 11.6906C57.9379 11.1643 56.9462 11.0473 56.0583 11.376C55.7546 11.4907 55.414 11.3505 55.279 11.0552C54.8837 10.1947 54.0998 9.57586 53.171 9.39112C52.2422 9.20638 51.2812 9.47811 50.5867 10.1218C50.3486 10.341 49.9824 10.341 49.7443 10.1218C49.05 9.4781 48.0891 9.20635 47.1605 9.3911C46.2319 9.57585 45.4482 10.1947 45.0532 11.0552C44.9177 11.3506 44.577 11.4912 44.2727 11.3772C43.3848 11.0484 42.3931 11.1654 41.606 11.6917C40.819 12.218 40.332 13.0899 40.2967 14.036C40.2824 14.3596 40.023 14.6186 39.6993 14.6322C38.7535 14.6686 37.8825 15.1561 37.3567 15.9432C36.831 16.7303 36.7143 17.7217 37.0428 18.6093C37.1542 18.913 37.0142 19.2513 36.7208 19.3875C35.8603 19.7828 35.2415 20.5667 35.0568 21.4955C34.872 22.4243 35.1438 23.3853 35.7875 24.0798C36.0068 24.3182 36.0068 24.6849 35.7875 24.9233C35.1438 25.6176 34.872 26.5785 35.0568 27.5072C35.2415 28.4358 35.8604 29.2195 36.7208 29.6145C37.0151 29.7498 37.1558 30.0887 37.044 30.3927C36.7155 31.2803 36.8322 32.2717 37.3579 33.0588C37.8836 33.8459 38.7547 34.3334 39.7005 34.3698C40.0241 34.3835 40.2836 34.6424 40.2978 34.966C40.3219 35.5264 40.5079 36.0678 40.8333 36.5247V55.9998H5.83333C3.90034 55.9998 2.33333 54.4328 2.33333 52.4998V10.4998C2.33333 8.56684 3.90034 6.99984 5.83333 6.99984H64.1667C66.0997 6.99984 67.6667 8.56684 67.6667 10.4998V52.4998Z" fill="white"/>
<path d="M12.8333 46.6667C10.9003 46.6667 9.33333 45.0997 9.33333 43.1667V19.8333C9.33333 17.9003 10.9003 16.3333 12.8333 16.3333H33.8333C34.4777 16.3333 35 15.811 35 15.1667C35 14.5223 34.4777 14 33.8333 14H12.8333C9.61327 14.0039 7.00386 16.6133 7 19.8333V43.1667C7.00386 46.3867 9.61327 48.9961 12.8333 49H35C35.6443 49 36.1667 48.4777 36.1667 47.8333C36.1667 47.189 35.6443 46.6667 35 46.6667H12.8333Z" fill="white"/>
<path d="M13.9997 32.6663H30.333C30.9773 32.6663 31.4997 32.144 31.4997 31.4997C31.4997 30.8553 30.9773 30.333 30.333 30.333H13.9997C13.3553 30.333 12.833 30.8553 12.833 31.4997C12.833 32.144 13.3553 32.6663 13.9997 32.6663Z" fill="white"/>
<path d="M13.9997 27.9998H30.333C30.9773 27.9998 31.4997 27.4775 31.4997 26.8332C31.4997 26.1888 30.9773 25.6665 30.333 25.6665H13.9997C13.3553 25.6665 12.833 26.1888 12.833 26.8332C12.833 27.4775 13.3553 27.9998 13.9997 27.9998Z" fill="white"/>
<path d="M13.9997 23.3333H30.333C30.9773 23.3333 31.4997 22.811 31.4997 22.1667C31.4997 21.5223 30.9773 21 30.333 21H13.9997C13.3553 21 12.833 21.5223 12.833 22.1667C12.833 22.811 13.3553 23.3333 13.9997 23.3333Z" fill="white"/>
<path d="M12.9305 43.633C13.1162 44.0583 13.5363 44.3332 14.0004 44.333C14.161 44.3337 14.32 44.3007 14.467 44.2361C15.5471 43.8348 16.5398 43.2292 17.3907 42.4523C17.7066 42.1371 17.9828 41.7845 18.2132 41.4023C18.6587 41.9031 19.1823 42.3286 19.7637 42.6623C20.5745 43.1924 21.5837 43.3214 22.5019 43.0123C22.8538 42.8757 23.1721 42.6648 23.4352 42.394C23.9631 42.7239 24.5447 42.9588 25.1537 43.0881L26.0357 43.297C27.836 43.8243 29.7065 44.0722 31.582 44.032C31.9978 44.0019 32.366 43.7524 32.5479 43.3773C32.7298 43.0023 32.6977 42.5586 32.4639 42.2136C32.23 41.8685 31.8298 41.6744 31.414 41.7045C29.7774 41.7258 28.1472 41.4977 26.5794 41.0278L25.6775 40.8143C24.589 40.5635 24.309 40.1248 24.1935 39.8156C23.9902 39.2728 23.4192 38.9616 22.8528 39.0849C22.2864 39.2081 21.8965 39.7286 21.9372 40.3068C21.9502 40.516 21.8512 40.7163 21.677 40.833C21.4044 40.8676 21.1289 40.7966 20.907 40.6346C19.9635 40.0472 19.254 39.1496 18.9004 38.096C18.6996 37.5534 18.1316 37.2399 17.5656 37.3592C16.9996 37.4785 16.6064 37.9946 16.6417 38.572C16.6613 39.4065 16.3344 40.212 15.7387 40.7968C15.0909 41.3633 14.3431 41.8041 13.5337 42.0965C13.2499 42.2201 13.0268 42.4515 12.9137 42.7397C12.8006 43.0279 12.8066 43.3492 12.9305 43.633Z" fill="white"/>
<path d="M50.1663 33.8332C55.321 33.8332 59.4997 29.6545 59.4997 24.4998C59.4997 19.3452 55.321 15.1665 50.1663 15.1665C45.0117 15.1665 40.833 19.3452 40.833 24.4998C40.8388 29.6521 45.0141 33.8274 50.1663 33.8332ZM50.1663 17.4998C54.0323 17.4998 57.1663 20.6338 57.1663 24.4998C57.1663 28.3658 54.0323 31.4998 50.1663 31.4998C46.3003 31.4998 43.1663 28.3658 43.1663 24.4998C43.1702 20.6354 46.3019 17.5037 50.1663 17.4998Z" fill="white"/>
</g>
<defs>
<clipPath id="clip0_13_109">
<rect width="70" height="70" fill="white"/>
</clipPath>
</defs>
</svg>
