<svg width="44" height="44" viewBox="0 0 44 44" fill="none" xmlns="http://www.w3.org/2000/svg">
<ellipse cx="22" cy="22.1651" rx="22" ry="21.5627" fill="#FF9B25"/>
<g clip-path="url(#clip0_13_401)">
<path d="M29.7851 30.5412C29.7851 27.9288 29.7851 25.275 29.7427 22.6626C29.7427 22.0406 29.6158 14.9912 29.6158 15.24C29.6158 15.0742 29.6158 14.8668 29.5735 14.701C29.4889 14.3278 29.2351 13.996 28.9389 13.7887C28.6427 13.5814 28.2197 13.4984 27.8812 13.5399L26.6966 13.5814C26.6966 13.3326 26.6543 13.1252 26.612 12.8764C26.5274 12.5861 26.4427 12.2959 26.2735 12.0056C26.1043 12.2959 26.0197 12.5861 25.9351 12.8764C25.8927 13.1252 25.8504 13.3326 25.8504 13.5814C25.1735 13.5814 24.4966 13.6228 23.8197 13.6228C23.8197 13.374 23.7774 13.1252 23.7351 12.8764C23.6504 12.5861 23.5658 12.2959 23.3966 12.0056C23.2274 12.2959 23.1427 12.5861 23.0581 12.8764C23.0158 13.1252 22.9735 13.4155 22.9735 13.6643C22.5927 13.6643 22.1697 13.6643 21.7889 13.7058C22.1697 13.7058 22.5927 13.7058 22.9735 13.7472V13.7887C22.9735 14.079 23.0158 14.3692 23.0581 14.6595C23.1427 14.9498 23.2274 15.24 23.3966 15.5303C23.5658 15.24 23.6504 14.9498 23.7351 14.6595C23.7774 14.3692 23.8197 14.079 23.8197 13.7887C24.4966 13.7887 25.1735 13.8302 25.8081 13.8302C25.8081 14.1204 25.8504 14.3692 25.8927 14.6595C25.9774 14.9498 26.062 15.24 26.2312 15.5303C26.4004 15.24 26.4851 14.9498 26.5697 14.6595C26.612 14.3692 26.6543 14.1204 26.6543 13.8302L27.8812 13.8716C28.2197 13.8716 28.4735 13.9131 28.7274 14.1204C28.9812 14.2863 29.1504 14.5351 29.1927 14.8254C29.2351 15.0742 29.1927 15.4474 29.1927 15.7791C29.1927 15.862 29.1504 18.7647 29.1504 18.7232L29.1081 22.6626C29.0658 25.275 29.0658 27.9288 29.0658 30.5412C29.0658 31.0388 28.6851 31.495 28.2197 31.5364C28.1351 31.5364 28.3043 31.5364 22.212 31.5364C21.5774 31.5364 24.4543 31.5364 16.162 31.5779C15.9927 31.5779 15.8658 31.5779 15.7389 31.5364C15.4004 31.4535 15.1043 31.1632 15.0197 30.8315C14.9774 30.6242 14.9774 30.251 14.9774 29.9192C14.9774 29.7948 14.9774 26.7678 14.9774 26.9751C14.9774 24.9432 14.9351 24.1968 14.8081 15.1156C14.7658 14.5351 15.2312 13.996 15.8235 13.9131C16.2889 13.8716 16.8389 13.8716 17.3466 13.8716C17.3466 14.1619 17.3889 14.4107 17.4312 14.701C17.5158 14.9912 17.6004 15.2815 17.7697 15.5718C17.9389 15.2815 18.0235 14.9912 18.1081 14.701C18.1504 14.4107 18.1927 14.1204 18.1927 13.8716C18.8697 13.8716 19.5466 13.8302 20.1812 13.8302V13.8716C20.1812 14.1619 20.2235 14.4522 20.2658 14.7424C20.3504 15.0327 20.4351 15.323 20.6043 15.6132C20.7735 15.323 20.8581 15.0327 20.9427 14.7424C20.9851 14.4522 21.0274 14.1619 21.0274 13.8716V13.8302C21.3235 13.8302 21.5774 13.8302 21.8735 13.7887C21.5774 13.7887 21.3235 13.7887 21.0274 13.7472C21.0274 13.4984 20.9851 13.2081 20.9427 12.9593C20.8581 12.6691 20.7735 12.3788 20.6043 12.0885C20.4351 12.3788 20.3504 12.6691 20.2658 12.9593C20.2235 13.2081 20.1812 13.457 20.1812 13.7472C19.5043 13.7472 18.8274 13.7058 18.1504 13.7058C18.1504 13.457 18.1081 13.2496 18.0658 13.0008C17.9812 12.7105 17.8966 12.4203 17.7274 12.13C17.5581 12.4203 17.4735 12.7105 17.3889 13.0008C17.3466 13.1252 17.3466 13.3326 17.3043 13.5814C16.7966 13.5814 16.2889 13.5399 15.7389 13.5399C15.3581 13.5814 15.0197 13.7472 14.7658 14.0375C14.512 14.3278 14.3851 14.701 14.3851 15.0742C14.1735 28.9655 14.2581 23.3675 14.2158 29.8778V30.3754C14.2158 30.4998 14.2158 30.7486 14.2581 30.9559C14.3851 31.5779 14.8927 32.0755 15.5697 32.2414C15.7812 32.2828 16.0351 32.2828 16.162 32.2828C24.4543 32.3243 21.5774 32.3243 22.212 32.3243C22.5081 32.3243 27.8812 32.2828 27.7543 32.2828H28.3043C28.7274 32.2414 29.1504 31.9926 29.4043 31.7023C29.6581 31.3706 29.8274 30.9144 29.7851 30.5412Z" fill="white" stroke="white" stroke-width="0.7"/>
<path d="M20.0962 27.1824C19.4616 27.2239 18.827 27.3483 18.1924 27.5141C18.827 27.68 19.4616 27.7629 20.0962 27.8459C21.3232 27.9703 22.5501 27.9703 23.8616 27.8459C24.4962 27.8044 25.1308 27.68 25.7655 27.5141C25.1308 27.3483 24.4962 27.2653 23.8616 27.1824C22.5501 27.0165 21.3232 27.058 20.0962 27.1824Z" fill="white" stroke="white" stroke-width="0.7"/>
<path d="M20.0962 23.8652C19.4616 23.9066 18.827 24.031 18.1924 24.1969C18.827 24.3628 19.4616 24.4457 20.0962 24.5286C21.3232 24.653 22.5501 24.653 23.8616 24.5286C24.4962 24.4872 25.1308 24.3628 25.7655 24.1969C25.1308 24.031 24.4962 23.9481 23.8616 23.8652C22.5501 23.7408 21.3232 23.7408 20.0962 23.8652Z" fill="white" stroke="white" stroke-width="0.7"/>
<path d="M18.2354 20.8795C18.87 21.0454 19.5046 21.1283 20.1392 21.2112C21.3661 21.3356 22.593 21.3356 23.9046 21.2112C24.5392 21.1698 25.1738 21.0454 25.8084 20.8795C25.1738 20.7136 24.5392 20.6307 23.9046 20.5478C22.5507 20.4234 21.3661 20.4234 20.1392 20.5478C19.4623 20.6307 18.8277 20.7136 18.2354 20.8795Z" fill="white" stroke="white" stroke-width="0.7"/>
</g>
<defs>
<clipPath id="clip0_13_401">
<rect width="22" height="21.5627" fill="white" transform="translate(11 11.3837)"/>
</clipPath>
</defs>
</svg>
