<svg width="18" height="18" viewBox="0 0 18 18" fill="none" xmlns="http://www.w3.org/2000/svg">
<g clip-path="url(#clip0_13_290)">
<path d="M10.7065 2.66681C10.7256 2.59542 10.7586 2.5285 10.8035 2.46986C10.8485 2.41122 10.9046 2.36202 10.9686 2.32506C11.0326 2.2881 11.1032 2.26411 11.1765 2.25447C11.2497 2.24482 11.3242 2.24971 11.3956 2.26884C12.4383 2.54092 13.3897 3.08604 14.1518 3.84809C14.9138 4.61013 15.4589 5.56153 15.731 6.60431C15.7502 6.67569 15.755 6.75013 15.7454 6.8234C15.7358 6.89666 15.7118 6.96731 15.6748 7.0313C15.6378 7.09529 15.5886 7.15137 15.53 7.19634C15.4714 7.24131 15.4044 7.27428 15.3331 7.29337C15.2855 7.30585 15.2366 7.31223 15.1875 7.31236C15.0636 7.3124 14.9432 7.27155 14.845 7.19616C14.7467 7.12077 14.676 7.01505 14.644 6.8954C14.4222 6.04402 13.9774 5.26719 13.3553 4.64501C12.7332 4.02284 11.9565 3.57783 11.1052 3.35587C11.0337 3.33685 10.9667 3.30394 10.908 3.259C10.8493 3.21407 10.8 3.15799 10.763 3.094C10.7259 3.03 10.7019 2.95933 10.6922 2.88603C10.6825 2.81273 10.6874 2.73823 10.7065 2.66681ZM10.5427 5.60587C11.5123 5.86462 12.1352 6.4883 12.394 7.4579C12.426 7.57755 12.4967 7.68327 12.595 7.75866C12.6932 7.83405 12.8136 7.8749 12.9375 7.87486C12.9866 7.87473 13.0355 7.86835 13.0831 7.85587C13.1544 7.83678 13.2214 7.80381 13.28 7.75884C13.3386 7.71387 13.3878 7.65779 13.4248 7.5938C13.4618 7.52981 13.4858 7.45916 13.4954 7.3859C13.505 7.31263 13.5002 7.23819 13.481 7.16681C13.121 5.81962 12.1802 4.87884 10.8331 4.51884C10.7617 4.49977 10.6872 4.49495 10.614 4.50465C10.5408 4.51435 10.4702 4.53838 10.4062 4.57537C10.3422 4.61235 10.2862 4.66157 10.2413 4.72022C10.1963 4.77887 10.1634 4.84579 10.1443 4.91716C10.1253 4.98854 10.1205 5.06297 10.1302 5.13621C10.1398 5.20945 10.1639 5.28006 10.2009 5.34401C10.2379 5.40797 10.2871 5.46401 10.3457 5.50894C10.4044 5.55387 10.4713 5.58681 10.5427 5.60587ZM15.6354 11.1416L12.323 9.65728L12.3138 9.65306C12.1419 9.57951 11.9543 9.54999 11.768 9.56718C11.5818 9.58437 11.4028 9.64772 11.2472 9.7515C11.2289 9.7636 11.2113 9.77675 11.1945 9.79087L9.48305 11.2499C8.39883 10.7232 7.27946 9.61228 6.75282 8.54212L8.21391 6.8047C8.22798 6.78712 8.24133 6.76955 8.25399 6.75056C8.35554 6.59538 8.41716 6.41751 8.43335 6.23276C8.44954 6.04802 8.41981 5.86213 8.3468 5.69165V5.68322L6.85829 2.36517C6.76178 2.14247 6.59583 1.95695 6.38522 1.83631C6.1746 1.71567 5.93062 1.66638 5.68969 1.6958C4.73694 1.82117 3.8624 2.28907 3.22941 3.01211C2.59643 3.73515 2.24828 4.66389 2.25001 5.62486C2.25001 11.2077 6.79219 15.7499 12.375 15.7499C13.336 15.7516 14.2647 15.4034 14.9878 14.7705C15.7108 14.1375 16.1787 13.2629 16.3041 12.3102C16.3335 12.0693 16.2844 11.8254 16.1638 11.6148C16.0433 11.4042 15.858 11.2382 15.6354 11.1416Z" fill="#01CC83"/>
</g>
<defs>
<clipPath id="clip0_13_290">
<rect width="18" height="18" fill="white"/>
</clipPath>
</defs>
</svg>
