<svg width="22" height="22" viewBox="0 0 22 22" fill="none" xmlns="http://www.w3.org/2000/svg">
<g clip-path="url(#clip0_2233_9217)">
<path d="M20.4612 14.7387L18.7073 12.9848C17.694 11.9715 15.9285 11.9708 14.9158 12.9848L13.3057 14.5943C13.2837 14.6163 13.2507 14.6225 13.2328 14.617C11.7987 14.1302 10.5742 13.3857 9.59453 12.406C8.61416 11.4263 7.87028 10.2018 7.38353 8.76772C7.37735 8.74916 7.38353 8.71685 7.40553 8.69485L9.01566 7.08472C9.52235 6.57804 9.80147 5.90497 9.80147 5.1886C9.80147 4.47222 9.52235 3.79916 9.01566 3.29247L7.26185 1.53866C6.21616 0.492973 4.51528 0.492973 3.47028 1.53866L2.73878 2.26879C1.26135 3.74691 0.539472 5.80391 0.808972 7.76741C1.23935 11.0097 2.78141 13.9831 5.39391 16.6066C8.01535 19.2177 10.9895 20.7598 14.229 21.1902C14.5012 21.2273 14.7748 21.2458 15.0485 21.2458C16.7528 21.2458 18.4564 20.5343 19.7303 19.2603L20.4612 18.5302C21.5062 17.4845 21.5062 15.7837 20.4612 14.7387ZM19.586 17.6557L18.8558 18.3858C17.6493 19.5917 15.9821 20.1837 14.3953 19.9637C11.4281 19.5697 8.69322 18.1452 6.26978 15.7314C3.8546 13.3066 2.4301 10.5717 2.03547 7.60172C1.81822 6.01635 2.4081 4.35054 3.61397 3.14397L4.3441 2.41385C4.62597 2.13197 4.99516 1.99172 5.36503 1.99172C5.73491 1.99172 6.1041 2.13266 6.38597 2.41385L8.13978 4.16766C8.41203 4.4406 8.5626 4.80291 8.5626 5.1886C8.5626 5.57429 8.41203 5.9366 8.13978 6.20953L6.52897 7.82035C6.17766 8.17235 6.05322 8.70035 6.21135 9.16578C6.75928 10.7814 7.60353 12.166 8.71866 13.2812C9.83378 14.397 11.2184 15.2405 12.834 15.7885C13.3002 15.9473 13.8275 15.8215 14.1802 15.4702L15.791 13.86C16.3362 13.3148 17.287 13.3155 17.8328 13.86L19.5867 15.6138C20.149 16.1762 20.149 17.0927 19.586 17.6557Z" fill="#234DCA"/>
<path d="M12.8208 3.91529C13.9476 4.3491 15.0393 5.0751 15.9777 6.01285C16.9141 6.94923 17.6422 8.04441 18.0843 9.18016C18.1798 9.42491 18.4136 9.57479 18.6611 9.57479C18.736 9.57479 18.8116 9.56104 18.8859 9.53216C19.2042 9.40773 19.3616 9.04954 19.2379 8.73054C18.7339 7.43666 17.9089 6.19435 16.8523 5.13766C15.7921 4.07754 14.5526 3.25598 13.2656 2.76029C12.9473 2.63723 12.5884 2.79604 12.4653 3.11504C12.3423 3.43404 12.5024 3.79291 12.8208 3.91529Z" fill="#F98A17"/>
<path d="M13.2889 5.94826C12.9686 5.83069 12.6124 5.99226 12.4935 6.31263C12.3746 6.63301 12.5375 6.98913 12.8579 7.10807C13.269 7.26069 13.6877 7.54257 14.0686 7.92344C14.4439 8.29882 14.7334 8.72851 14.8839 9.13413C14.9767 9.38369 15.2132 9.53769 15.4642 9.53769C15.5357 9.53769 15.6085 9.52463 15.6794 9.49851C15.9997 9.37957 16.1627 9.02344 16.0437 8.70307C15.8292 8.12626 15.4491 7.55426 14.9431 7.04826C14.4377 6.54363 13.8657 6.16276 13.2889 5.94826Z" fill="#F98A17"/>
</g>
<defs>
<clipPath id="clip0_2233_9217">
<rect width="22" height="22" fill="white"/>
</clipPath>
</defs>
</svg>
