<svg width="20" height="20" viewBox="0 0 20 20" fill="none" xmlns="http://www.w3.org/2000/svg">
<g clip-path="url(#clip0_13_3481)">
<path d="M19.1517 6.56245C18.5861 5.997 17.9164 5.71426 17.1427 5.71426H12.9686C13.1324 5.26788 13.2142 4.79168 13.2142 4.28569C13.2142 3.37805 12.911 2.675 12.3046 2.17636C11.698 1.67791 10.9299 1.42871 9.99988 1.42871C9.71718 1.42871 9.45851 1.4938 9.22413 1.62409C8.98974 1.75418 8.7851 1.93845 8.61028 2.17636C8.43551 2.41446 8.28481 2.64885 8.1584 2.87956C8.03178 3.11024 7.8941 3.37805 7.74536 3.68307C7.59658 3.98829 7.47388 4.21885 7.37717 4.37517C7.11678 4.78445 6.74468 5.26417 6.26117 5.81484C6.24623 5.83716 6.19412 5.90045 6.10484 6.00459C6.01556 6.1088 5.94484 6.18878 5.89281 6.24456C5.84078 6.30035 5.7646 6.38037 5.66405 6.48454C5.56343 6.58876 5.47415 6.67237 5.39613 6.73566C5.31798 6.79895 5.23433 6.86583 5.14501 6.93659C5.05572 7.0073 4.96828 7.05933 4.88271 7.09291C4.79722 7.12633 4.71724 7.14306 4.64285 7.14306H1.42865C1.03422 7.14306 0.697496 7.28281 0.418506 7.56172C0.139593 7.84052 0 8.17725 0 8.57159V15.7144C0 16.1088 0.139437 16.4455 0.418506 16.7245C0.697653 17.0035 1.03418 17.1431 1.42865 17.1431H4.64285C5.08176 17.1431 5.9113 17.3628 7.1316 17.8017C8.53777 18.3151 9.73567 18.5716 10.7253 18.5716C11.7743 18.5716 12.6188 18.2721 13.2587 17.6732C13.8986 17.0744 14.2149 16.2578 14.2073 15.2233C14.654 14.6504 14.8772 13.9882 14.8772 13.2368C14.8772 13.0732 14.8659 12.9132 14.8437 12.757C15.0893 12.3329 15.227 11.8901 15.2568 11.4288H17.143C17.9243 11.4288 18.5958 11.1462 19.1577 10.5807C19.7192 10.0153 20.0001 9.34203 20.0001 8.56088C19.9998 7.79435 19.7171 7.12837 19.1517 6.56245ZM2.64508 15.5025C2.50365 15.6439 2.3363 15.7146 2.14288 15.7146C1.9493 15.7146 1.78187 15.6439 1.64056 15.5025C1.49913 15.3611 1.42853 15.1938 1.42853 15.0003C1.42853 14.8069 1.49917 14.6394 1.64056 14.4981C1.78203 14.3567 1.9493 14.2859 2.14288 14.2859C2.3363 14.2859 2.50365 14.3567 2.64508 14.4981C2.78643 14.6394 2.8571 14.8068 2.8571 15.0003C2.8571 15.1938 2.78639 15.3611 2.64508 15.5025ZM18.1471 9.57669C17.8646 9.85943 17.5293 10.0007 17.1424 10.0007H13.4484C13.56 10.1272 13.6529 10.304 13.7273 10.5309C13.8018 10.7578 13.839 10.9643 13.839 11.1503C13.839 11.6637 13.6418 12.1062 13.2475 12.4782C13.3815 12.7163 13.4484 12.9731 13.4484 13.2483C13.4484 13.5236 13.3832 13.797 13.2531 14.0686C13.1228 14.34 12.9461 14.5353 12.7228 14.6544C12.76 14.8772 12.7787 15.0858 12.7787 15.2794C12.7787 16.5215 12.0756 17.1428 10.6694 17.1428C10.0666 17.1428 9.39886 17.0238 8.66603 16.7859C7.93316 16.5479 7.2133 16.3097 6.50642 16.0716C5.79954 15.8336 5.17835 15.7146 4.64257 15.7146H4.28548V8.57191H4.64257C5.17081 8.57191 5.69157 8.3598 6.20499 7.93555C6.42832 7.7494 6.80406 7.35501 7.33225 6.75243C7.86803 6.14985 8.28474 5.61055 8.58226 5.13423C8.67897 4.97791 8.81664 4.73609 8.99529 4.40875C9.48635 3.37449 9.82116 2.85747 9.9998 2.85747C10.5281 2.85747 10.9578 2.97092 11.2889 3.19776C11.62 3.42476 11.7854 3.78736 11.7854 4.28585C11.7854 4.60584 11.7296 4.92021 11.6181 5.22895C11.5064 5.53769 11.3837 5.79076 11.2498 5.98786C11.1159 6.18495 10.9931 6.38963 10.8815 6.6017C10.7699 6.81372 10.7142 6.99421 10.7142 7.14295H17.1427C17.5146 7.14295 17.8458 7.28621 18.1361 7.57263C18.4262 7.85924 18.5712 8.19194 18.5712 8.57151C18.5712 8.95875 18.4299 9.29352 18.1471 9.57669Z" fill="#234DCA"/>
</g>
<defs>
<clipPath id="clip0_13_3481">
<rect width="20" height="20" fill="white"/>
</clipPath>
</defs>
</svg>
