<svg width="16" height="21" viewBox="0 0 16 21" fill="none" xmlns="http://www.w3.org/2000/svg">
<path d="M9.14327 2.08358H7.80456C7.72961 1.71452 7.52939 1.38272 7.23781 1.1444C6.94622 0.906072 6.58121 0.775879 6.20462 0.775879C5.82803 0.775879 5.46302 0.906072 5.17144 1.1444C4.87985 1.38272 4.67963 1.71452 4.60469 2.08358H3.26597C3.17937 2.08358 3.09632 2.11798 3.03509 2.17922C2.97385 2.24045 2.93945 2.3235 2.93945 2.4101V4.04268C2.93945 4.12928 2.97385 4.21233 3.03509 4.27357C3.09632 4.3348 3.17937 4.3692 3.26597 4.3692H9.14327C9.22987 4.3692 9.31292 4.3348 9.37416 4.27357C9.43539 4.21233 9.46979 4.12928 9.46979 4.04268V2.4101C9.46979 2.3235 9.43539 2.24045 9.37416 2.17922C9.31292 2.11798 9.22987 2.08358 9.14327 2.08358Z" fill="#234DCA"/>
<path d="M14.3673 17.217V18.7353C14.3676 18.7929 14.3526 18.8495 14.3239 18.8993C14.2953 18.9492 14.2539 18.9906 14.2041 19.0194L11.9185 20.3255C11.8688 20.3541 11.8125 20.3692 11.7552 20.3692C11.6979 20.3692 11.6416 20.3541 11.5919 20.3255L9.30633 19.0194C9.2565 18.9906 9.21516 18.9492 9.18649 18.8993C9.15782 18.8495 9.14284 18.7929 9.14307 18.7353V17.217L11.3177 18.3043C11.4535 18.3722 11.6033 18.4075 11.7552 18.4075C11.9071 18.4075 12.0569 18.3722 12.1927 18.3043L14.3673 17.217Z" fill="#234DCA"/>
<path d="M15.8201 15.1801L11.9019 13.221C11.8563 13.198 11.806 13.186 11.755 13.186C11.7039 13.186 11.6536 13.198 11.608 13.221L7.68984 15.1801C7.63636 15.2075 7.59148 15.2491 7.56013 15.3004C7.52879 15.3516 7.51221 15.4106 7.51221 15.4707C7.51221 15.5308 7.52879 15.5897 7.56013 15.641C7.59148 15.6922 7.63636 15.7339 7.68984 15.7613L11.608 17.7204C11.6536 17.7433 11.7039 17.7553 11.755 17.7553C11.806 17.7553 11.8563 17.7433 11.9019 17.7204L15.3467 15.9996V20.0419C15.3467 20.1285 15.3811 20.2115 15.4423 20.2728C15.5035 20.334 15.5866 20.3684 15.6732 20.3684C15.7598 20.3684 15.8428 20.334 15.9041 20.2728C15.9653 20.2115 15.9997 20.1285 15.9997 20.0419V15.4707C15.9995 15.4104 15.9826 15.3513 15.9509 15.3C15.9192 15.2487 15.874 15.2072 15.8201 15.1801Z" fill="#234DCA"/>
<path d="M12.0816 2.73682H10.1225V4.04288C10.1225 4.30268 10.0193 4.55183 9.83561 4.73553C9.65191 4.91923 9.40275 5.02243 9.14296 5.02243H3.26566C3.00586 5.02243 2.75671 4.91923 2.57301 4.73553C2.38931 4.55183 2.28611 4.30268 2.28611 4.04288V2.73682H0.327005C0.240408 2.73682 0.157357 2.77122 0.0961229 2.83245C0.0348891 2.89368 0.000488281 2.97674 0.000488281 3.06333V18.0831C0.000488281 18.1697 0.0348891 18.2528 0.0961229 18.314C0.157357 18.3752 0.240408 18.4096 0.327005 18.4096H8.48993V16.8913L7.39936 16.346C7.23721 16.2645 7.10092 16.1395 7.00568 15.9849C6.91045 15.8304 6.86001 15.6525 6.86001 15.471C6.86001 15.2895 6.91045 15.1115 7.00568 14.957C7.10092 14.8025 7.23721 14.6775 7.39936 14.5959L11.3176 12.6368C11.4534 12.569 11.6032 12.5337 11.7551 12.5337C11.907 12.5337 12.0568 12.569 12.1926 12.6368L12.4081 12.7446V3.06333C12.4081 2.97674 12.3737 2.89368 12.3125 2.83245C12.2513 2.77122 12.1682 2.73682 12.0816 2.73682ZM9.79599 11.8793H4.24521C4.15861 11.8793 4.07556 11.8449 4.01433 11.7837C3.95309 11.7224 3.91869 11.6394 3.91869 11.5528C3.91869 11.4662 3.95309 11.3831 4.01433 11.3219C4.07556 11.2607 4.15861 11.2263 4.24521 11.2263H9.79599C9.88259 11.2263 9.96564 11.2607 10.0269 11.3219C10.0881 11.3831 10.1225 11.4662 10.1225 11.5528C10.1225 11.6394 10.0881 11.7224 10.0269 11.7837C9.96564 11.8449 9.88259 11.8793 9.79599 11.8793ZM9.79599 9.59367H2.61262C2.52603 9.59367 2.44297 9.55927 2.38174 9.49804C2.32051 9.4368 2.28611 9.35375 2.28611 9.26715C2.28611 9.18056 2.32051 9.09751 2.38174 9.03627C2.44297 8.97504 2.52603 8.94064 2.61262 8.94064H9.79599C9.88259 8.94064 9.96564 8.97504 10.0269 9.03627C10.0881 9.09751 10.1225 9.18056 10.1225 9.26715C10.1225 9.35375 10.0881 9.4368 10.0269 9.49804C9.96564 9.55927 9.88259 9.59367 9.79599 9.59367ZM9.79599 7.30805H4.24521C4.15861 7.30805 4.07556 7.27365 4.01433 7.21242C3.95309 7.15119 3.91869 7.06813 3.91869 6.98154C3.91869 6.89494 3.95309 6.81189 4.01433 6.75065C4.07556 6.68942 4.15861 6.65502 4.24521 6.65502H9.79599C9.88259 6.65502 9.96564 6.68942 10.0269 6.75065C10.0881 6.81189 10.1225 6.89494 10.1225 6.98154C10.1225 7.06813 10.0881 7.15119 10.0269 7.21242C9.96564 7.27365 9.88259 7.30805 9.79599 7.30805Z" fill="#234DCA"/>
</svg>
