<svg width="22" height="22" viewBox="0 0 22 22" fill="none" xmlns="http://www.w3.org/2000/svg">
<path d="M0 15.5967V17.3614C0 17.6731 0.253515 17.9264 0.565039 17.9264H21.435C21.7465 17.9264 22 17.6731 22 17.3614V15.5967H0Z" fill="#234DCA"/>
<path d="M4.05429 2.7289L5.34378 3.2355L11 5.45756L16.6565 3.23536L17.9458 2.7289L11 0.000244141L4.05429 2.7289Z" fill="#234DCA"/>
<path d="M5.5022 3.81738V7.56082L11.0001 9.59654L16.498 7.56082V3.81738L11.0884 5.94262C11.0601 5.95379 11.0301 5.95937 11.0001 5.95937C10.97 5.95937 10.94 5.95379 10.9117 5.94262L5.5022 3.81738Z" fill="#234DCA"/>
<path d="M0.565039 2.97046H3.34698L3.80417 3.15007V9.52334C3.80417 9.65683 3.9123 9.76511 4.04594 9.76511C4.17943 9.76511 4.28771 9.65683 4.28771 9.52334V3.34013L5.01861 3.62716V7.72896C5.01861 7.83008 5.08148 7.9206 5.1763 7.95555L10.9159 10.0809C10.943 10.091 10.9714 10.096 11 10.096C11.0284 10.096 11.0569 10.0908 11.0838 10.0809L16.8237 7.95555C16.9187 7.92046 16.9815 7.82994 16.9815 7.72896V3.62716L18.653 2.97046H21.435C21.7465 2.97046 22 3.22397 22 3.5355V15.1131H0V3.5355C0 3.22397 0.253515 2.97046 0.565039 2.97046ZM20.3083 11.5548H8.30629C8.17266 11.5548 8.06452 11.663 8.06452 11.7965C8.06452 11.9302 8.17266 12.0383 8.30629 12.0383H20.3083C20.442 12.0383 20.5501 11.9302 20.5501 11.7965C20.5501 11.663 20.4418 11.5548 20.3083 11.5548ZM15.3123 13.6532H20.3083C20.442 13.6532 20.5501 13.5451 20.5501 13.4114C20.5501 13.2779 20.442 13.1697 20.3083 13.1697H15.3123C15.1787 13.1697 15.0706 13.2779 15.0706 13.4114C15.0706 13.5449 15.1789 13.6532 15.3123 13.6532ZM1.69168 13.6532H13.8328C13.9664 13.6532 14.0746 13.5451 14.0746 13.4114C14.0746 13.2779 13.9664 13.1697 13.8328 13.1697H1.69168C1.55805 13.1697 1.44991 13.2779 1.44991 13.4114C1.44991 13.5449 1.55819 13.6532 1.69168 13.6532ZM1.69168 12.0382H6.78305C6.91654 12.0382 7.02482 11.93 7.02482 11.7964C7.02482 11.6629 6.91654 11.5546 6.78305 11.5546H1.69168C1.55805 11.5546 1.44991 11.6629 1.44991 11.7964C1.44991 11.93 1.55819 12.0382 1.69168 12.0382Z" fill="#234DCA"/>
<path d="M6.1663 21.6077C6.1663 21.7412 6.27444 21.8495 6.40807 21.8495H15.5922C15.7258 21.8495 15.834 21.7412 15.834 21.6077C15.834 21.4741 15.7258 21.366 15.5922 21.366H14.029L12.642 18.4102H9.35859L7.97156 21.366H6.40836C6.27458 21.366 6.1663 21.4743 6.1663 21.6077Z" fill="#234DCA"/>
</svg>
