<svg width="314" height="263" viewBox="0 0 314 263" fill="none" xmlns="http://www.w3.org/2000/svg">
<path d="M113 131.5C113 58.8746 171.875 0 244.5 0H299C307.284 0 314 6.71573 314 15V248C314 256.284 307.284 263 299 263H244.5C171.875 263 113 204.125 113 131.5Z" fill="#01CC83"/>
<path d="M131.5 154C58.8746 154 0 95.1259 0 22.5005L0 0.000488281H248C256.284 0.000488281 263 6.71622 263 15.0005V22.5005C263 95.1259 204.125 154 131.5 154Z" fill="#0109CC" fill-opacity="0.5"/>
<path d="M189.5 127.001C247.214 127.001 294 173.787 294 231.501V263.001H85V231.501C85 173.787 131.786 127.001 189.5 127.001Z" fill="#B001CC" fill-opacity="0.5"/>
</svg>
